<svg width="666" height="563" viewBox="0 0 666 563" fill="none" xmlns="http://www.w3.org/2000/svg">
<path d="M657.034 192.473C657.816 195.527 658.548 198.597 659.231 201.682H426.712V192.473H657.034Z" fill="#E6E6E6"/>
<path d="M649.622 168.2C645.879 157.629 641.514 147.288 636.55 137.232C635.023 134.132 633.437 131.062 631.792 128.024C631.522 127.503 631.233 126.981 630.945 126.46V194.987H651.037V172.278L649.622 168.2Z" fill="#E6E6E6"/>
<path d="M636.55 137.232H630.945V128.024H631.792C633.44 131.059 635.026 134.129 636.55 137.232Z" fill="#CCCCCC"/>
<path d="M649.622 168.2H630.945V177.409H651.037V172.278L649.622 168.2Z" fill="#CCCCCC"/>
<path d="M620.065 115.47H599.976V194.989H620.065V115.47Z" fill="#E6E6E6"/>
<path d="M620.065 128.026H599.976V137.233H620.065V128.026Z" fill="#CCCCCC"/>
<path d="M620.065 168.203H599.976V177.411H620.065V168.203Z" fill="#CCCCCC"/>
<path d="M528.451 115.007H456.385C455.275 115.009 454.21 115.451 453.424 116.236C452.639 117.022 452.197 118.086 452.195 119.197V191.263C452.197 191.673 452.256 192.08 452.372 192.473C452.634 193.335 453.165 194.089 453.887 194.625C454.61 195.162 455.485 195.452 456.385 195.453H528.451C529.351 195.452 530.227 195.162 530.949 194.625C531.672 194.089 532.203 193.335 532.464 192.473C532.58 192.08 532.64 191.673 532.641 191.263V119.197C532.639 118.086 532.197 117.022 531.412 116.236C530.626 115.451 529.562 115.009 528.451 115.007Z" fill="#E6E6E6"/>
<path d="M523.33 120.128H461.506C460.396 120.13 459.331 120.572 458.545 121.357C457.76 122.143 457.318 123.208 457.316 124.318V186.142C457.318 187.253 457.76 188.318 458.545 189.103C459.331 189.888 460.396 190.33 461.506 190.332H523.33C524.441 190.33 525.505 189.888 526.291 189.103C527.076 188.318 527.518 187.253 527.52 186.142V124.318C527.518 123.208 527.076 122.143 526.291 121.357C525.505 120.572 524.441 120.13 523.33 120.128Z" fill="white"/>
<path d="M512.549 130.91H472.288C471.178 130.912 470.113 131.354 469.327 132.139C468.542 132.925 468.1 133.989 468.098 135.1V175.36C468.1 176.471 468.542 177.535 469.327 178.321C470.113 179.106 471.178 179.548 472.288 179.55H512.549C513.658 179.544 514.72 179.101 515.505 178.316C516.289 177.532 516.733 176.47 516.738 175.36V135.1C516.737 133.989 516.295 132.925 515.509 132.139C514.724 131.354 513.659 130.912 512.549 130.91Z" fill="#CCCCCC"/>
<path d="M510.066 168.259L501.563 153.53C501.399 153.247 501.164 153.012 500.881 152.849C500.598 152.685 500.277 152.599 499.95 152.599C499.623 152.599 499.302 152.685 499.019 152.849C498.736 153.012 498.501 153.247 498.337 153.53L492.128 164.285L483.985 150.182C483.821 149.899 483.586 149.664 483.303 149.5C483.02 149.337 482.699 149.251 482.372 149.251C482.045 149.251 481.724 149.337 481.441 149.5C481.158 149.664 480.923 149.899 480.759 150.182L472.256 164.911L462.14 182.433H481.65L479.717 185.781H520.183L510.066 168.259Z" fill="white"/>
<path d="M507.065 145.603C510.301 145.603 512.924 142.98 512.924 139.744C512.924 136.508 510.301 133.885 507.065 133.885C503.829 133.885 501.205 136.508 501.205 139.744C501.205 142.98 503.829 145.603 507.065 145.603Z" fill="white"/>
<path d="M665.926 257.538C665.86 253.925 665.718 250.331 665.497 246.756C665.404 245.043 665.293 243.339 665.153 241.635H625.842C624.732 241.636 623.667 242.078 622.882 242.864C622.096 243.649 621.654 244.714 621.653 245.825V317.89C621.65 318.22 621.691 318.549 621.774 318.868C621.994 319.782 622.514 320.596 623.252 321.178C623.99 321.761 624.902 322.078 625.842 322.08H662.08C662.267 321.019 662.443 319.939 662.602 318.868C662.704 318.235 662.807 317.593 662.9 316.959C663.123 315.442 663.337 313.924 663.533 312.406C663.812 310.339 664.064 308.263 664.287 306.177C665.106 298.701 665.634 291.144 665.87 283.506V283.496C665.954 280.619 665.997 277.73 666 274.828V263.655C666 261.606 665.982 259.567 665.926 257.538Z" fill="#E6E6E6"/>
<path d="M665.926 257.538C665.86 253.925 665.717 250.331 665.497 246.756H630.963C629.853 246.757 628.788 247.199 628.002 247.985C627.217 248.77 626.775 249.835 626.773 250.945V312.769C626.775 313.88 627.217 314.945 628.002 315.73C628.788 316.516 629.853 316.958 630.963 316.959H662.9C663.123 315.442 663.337 313.924 663.533 312.406C663.812 310.339 664.064 308.263 664.287 306.177C665.106 298.701 665.634 291.143 665.87 283.505V283.496C665.953 280.619 665.997 277.73 666 274.828V263.655C666 261.606 665.982 259.567 665.926 257.538Z" fill="white"/>
<path d="M665.926 257.538H641.745C640.635 257.539 639.57 257.981 638.785 258.767C637.999 259.552 637.557 260.617 637.555 261.727V301.987C637.557 303.098 637.999 304.163 638.785 304.948C639.57 305.734 640.635 306.176 641.745 306.177H664.287C665.106 298.701 665.634 291.144 665.87 283.505V283.496C665.954 280.619 665.997 277.73 666 274.828V263.655C666 261.606 665.982 259.567 665.926 257.538Z" fill="#CCCCCC"/>
<path d="M665.87 283.506C665.637 291.14 665.109 298.698 664.287 306.177C664.064 308.263 663.812 310.339 663.533 312.406H649.175L651.112 309.064H631.597L637.555 298.738L641.708 291.541L650.218 276.811C650.38 276.527 650.615 276.291 650.898 276.126C651.181 275.962 651.502 275.875 651.829 275.875C652.156 275.875 652.478 275.962 652.761 276.126C653.043 276.291 653.278 276.527 653.44 276.811L661.587 290.917L665.87 283.506Z" fill="white"/>
<path d="M595.322 75.2968H426.712V66.0884H586.961C589.81 69.0958 592.597 72.1652 595.322 75.2968Z" fill="#E6E6E6"/>
<path d="M516.273 11.4337C523.144 15.2139 529.842 19.2641 536.365 23.5843V68.5929H516.273V11.4337Z" fill="#E6E6E6"/>
<path d="M536.361 41.811H516.272V51.0184H536.361V41.811Z" fill="#CCCCCC"/>
<path d="M567.333 47.2339V68.5929H547.24V31.1541C551.924 34.5712 556.502 38.1248 560.974 41.815C563.115 43.584 565.235 45.3903 567.333 47.2339Z" fill="#E6E6E6"/>
<path d="M567.333 47.2339V51.014H547.24V41.8149H560.974C563.115 43.584 565.235 45.3903 567.333 47.2339Z" fill="#CCCCCC"/>
<path d="M495.761 1.17317C501.077 3.566 506.304 6.11717 511.44 8.82668L507.306 17.1692L493.573 44.9248L489.486 53.1742L483.089 66.0883L481.683 68.9281L475.957 66.0883L463.685 60.0083L471.478 44.2544H471.488L475.566 36.005L489.309 8.2494L493.349 0.093114L493.396 0L495.761 1.17317Z" fill="#E6E6E6"/>
<path d="M511.393 8.91047L507.306 17.1692L489.308 8.2494L493.349 0.0931083L493.396 0L495.761 1.17316L511.393 8.91047Z" fill="#CCCCCC"/>
<path d="M475.566 36.0075L471.481 44.259L489.484 53.1722L493.569 44.9208L475.566 36.0075Z" fill="#CCCCCC"/>
<path d="M662.601 318.868C662.443 319.939 662.266 321.019 662.08 322.08C661.754 324.091 661.4 326.084 661.019 328.076H426.712V318.868H662.601Z" fill="#E6E6E6"/>
<path d="M536.361 241.862H516.272V321.381H536.361V241.862Z" fill="#E6E6E6"/>
<path d="M536.361 254.418H516.272V263.625H536.361V254.418Z" fill="#CCCCCC"/>
<path d="M536.361 294.596H516.272V303.803H536.361V294.596Z" fill="#CCCCCC"/>
<path d="M567.331 241.862H547.242V321.381H567.331V241.862Z" fill="#E6E6E6"/>
<path d="M567.331 254.418H547.242V263.625H567.331V254.418Z" fill="#CCCCCC"/>
<path d="M567.331 294.596H547.242V303.803H567.331V294.596Z" fill="#CCCCCC"/>
<path d="M498.963 241.534L463.682 312.796L481.685 321.71L516.966 250.447L498.963 241.534Z" fill="#E6E6E6"/>
<path d="M493.393 252.786L489.307 261.037L507.311 269.95L511.396 261.699L493.393 252.786Z" fill="#CCCCCC"/>
<path d="M475.566 288.792L471.481 297.043L489.484 305.957L493.569 297.705L475.566 288.792Z" fill="#CCCCCC"/>
<path d="M272.62 354.353C273.459 354.836 274.259 355.385 275.013 355.994L357.906 330.197L362.58 309.632L394.54 312.629L389.803 349.841C389.42 352.848 388.073 355.649 385.963 357.824C383.853 359.999 381.094 361.431 378.101 361.905L280.548 377.35C279.125 380.799 276.685 383.734 273.554 385.763C270.422 387.792 266.747 388.819 263.017 388.709C259.287 388.598 255.679 387.354 252.673 385.143C249.668 382.932 247.406 379.858 246.19 376.331C244.974 372.803 244.86 368.989 245.865 365.395C246.869 361.801 248.944 358.598 251.813 356.212C254.682 353.827 258.21 352.371 261.926 352.039C265.643 351.707 269.373 352.514 272.62 354.353Z" fill="#FFB8B8"/>
<path d="M409.31 324.966L408.76 315.581V315.572L408.611 313.002L406.991 285.368C407.476 279.606 405.658 273.888 401.936 269.464C398.214 265.041 392.89 262.272 387.131 261.765C385.475 261.616 383.806 261.66 382.16 261.895C377.268 262.587 372.753 264.911 369.347 268.49C365.942 272.07 363.845 276.695 363.398 281.615L360.037 295.6L354.162 320.06C353.745 321.771 353.918 323.573 354.651 325.174C355.384 326.775 356.635 328.083 358.203 328.886C359.108 329.362 360.098 329.654 361.117 329.743L370.912 330.618L380.344 331.456L391.228 332.424L392.01 332.49L394.021 332.676L400.753 333.272H400.772C401.896 333.362 403.027 333.213 404.089 332.835C405.152 332.456 406.122 331.856 406.936 331.074C407.528 330.497 408.028 329.831 408.416 329.1C409.095 327.833 409.405 326.401 409.31 324.966Z" fill="#9732D4"/>
<path d="M500.272 211.163C500.272 243.029 470.807 238.209 434.459 238.209C398.111 238.209 368.645 243.029 368.645 211.163C368.645 179.296 383.039 122.81 434.459 122.81C487.651 122.81 500.272 179.296 500.272 211.163Z" fill="#2F2E41"/>
<path d="M465.554 225.185C482.849 207.89 482.849 179.85 465.554 162.555C448.259 145.26 420.219 145.26 402.924 162.555C385.629 179.85 385.629 207.89 402.924 225.185C420.219 242.48 448.259 242.48 465.554 225.185Z" fill="#FFB8B8"/>
<path d="M496.58 256.774C495.728 255.953 494.823 255.188 493.871 254.484C487.85 249.935 480.283 247.932 472.8 248.906L391.191 259.232C383.716 260.16 376.896 263.963 372.177 269.834C367.458 275.706 365.211 283.184 365.912 290.684C366.145 293.291 366.406 296.038 366.694 298.896C367.067 302.481 367.486 306.242 367.97 310.134C368.77 316.68 369.748 323.589 370.912 330.618C371.927 336.67 373.082 342.806 374.404 348.867C374.786 350.618 375.183 352.362 375.595 354.1C375.595 354.105 375.595 354.11 375.597 354.115C375.598 354.12 375.601 354.124 375.605 354.128C375.651 354.342 375.698 354.556 375.753 354.761C375.751 354.777 375.754 354.794 375.763 354.808C376.34 357.229 376.946 359.621 377.579 361.986C377.821 362.862 378.053 363.728 378.295 364.584C378.947 366.912 379.636 369.193 380.344 371.437C385.66 388.131 392.69 402.349 401.973 409.909C402.094 410.021 402.215 410.114 402.345 410.216L402.718 410.505L403.258 410.337L405.548 409.658L407.504 409.062L432.978 401.399L439.319 399.49L459.691 393.355H459.7L478.331 387.749L480.603 387.06L496.608 382.247L497.12 376.269L497.81 368.336L498.219 363.569L501.459 325.972L503.349 304.036L505.398 280.219C505.778 275.9 505.184 271.551 503.657 267.493C502.131 263.435 499.712 259.772 496.58 256.774Z" fill="#2F2E41"/>
<path d="M542.213 438.698C541.999 438.075 541.794 437.451 541.579 436.836C532.008 408.904 517.893 387.777 497.12 376.269C497.111 376.269 497.111 376.26 497.102 376.26L496.748 376.064L478.648 382.331L476.413 383.103L474.085 383.913L474.057 383.923L457.112 389.789L457.084 389.798L443.788 394.397H443.778L431.479 398.653H431.47L428.611 399.649L407.112 407.088L404.617 407.954L402.382 408.727L402.038 408.848L401.973 409.909L400.437 436.836L400.334 438.698L398.416 472.301L334.721 562.532H378.295C392.896 562.536 407.476 561.425 421.907 559.208L462.791 515.15C463.134 514.795 463.567 514.54 464.043 514.414C464.52 514.287 465.022 514.293 465.496 514.431C465.969 514.569 466.396 514.834 466.73 515.197C467.064 515.56 467.293 516.007 467.391 516.49L473.396 546.285C502.982 535.823 530.659 520.595 555.331 501.202C552.464 478.065 548.274 456.976 542.213 438.698Z" fill="#2F2E41"/>
<path d="M383.07 189.525H400.586L408.314 167.888L409.859 189.525H418.231L422.739 176.903L423.64 189.525H485.848C485.848 183.369 484.635 177.272 482.279 171.585C479.923 165.897 476.47 160.729 472.117 156.375C467.763 152.022 462.595 148.569 456.907 146.213C451.219 143.857 445.123 142.644 438.967 142.644H429.951C417.517 142.644 405.593 147.584 396.801 156.375C388.009 165.167 383.07 177.092 383.07 189.525Z" fill="#2F2E41"/>
<path d="M275.33 424.162C272.47 425.363 269.382 425.923 266.283 425.802C263.183 425.681 260.148 424.882 257.391 423.461C254.634 422.04 252.222 420.031 250.325 417.577C248.428 415.123 247.092 412.283 246.411 409.257L171.491 400.771L196.605 370.697L263.9 383.366C269.06 382.559 274.336 383.673 278.729 386.497C283.122 389.321 286.327 393.658 287.736 398.687C289.145 403.716 288.66 409.086 286.373 413.782C284.087 418.477 280.158 422.17 275.33 424.162Z" fill="#A0616A"/>
<path d="M234.937 368.495L203.27 362.834L200.971 362.424C199.133 362.096 197.385 361.382 195.843 360.331C194.301 359.279 192.998 357.913 192.021 356.322C191.044 354.731 190.415 352.952 190.174 351.101C189.934 349.249 190.088 347.368 190.626 345.581L206.175 293.915L206.641 292.379C208.582 285.812 208.237 278.78 205.66 272.435C203.084 266.091 198.43 260.808 192.46 257.454C188.419 255.21 183.915 253.928 179.298 253.708C174.681 253.489 170.076 254.337 165.84 256.188C161.605 258.038 157.853 260.84 154.877 264.377C151.901 267.913 149.78 272.089 148.681 276.578L128.849 357.517L128.113 360.515C126.728 366.163 126.577 372.043 127.671 377.754C128.764 383.466 131.076 388.874 134.449 393.611C137.822 398.347 142.177 402.301 147.217 405.202C152.257 408.103 157.863 409.883 163.653 410.421C163.718 410.431 163.774 410.431 163.839 410.44L175.711 411.492L191.11 412.861L210.477 414.583L228.549 416.194C230.917 416.409 233.278 415.725 235.165 414.28C237.052 412.835 238.326 410.733 238.736 408.391C238.763 408.261 238.782 408.131 238.801 408L242.637 379.36L242.674 379.1C243.005 376.675 242.384 374.216 240.941 372.239C239.499 370.262 237.347 368.92 234.937 368.495Z" fill="#CCCCCC"/>
<path d="M186.149 151.489C173.508 176.342 163.545 201.976 135.662 201.976C122.272 201.976 109.431 196.657 99.9624 187.189C90.4942 177.72 85.175 164.879 85.175 151.489C85.175 123.605 107.781 101.351 135.662 101.002C164 100.647 209.678 105.229 186.149 151.489Z" fill="#2F2E41"/>
<path d="M217.861 476.621L216.715 465.188L215.859 465.234L65.3118 472.487L65.7027 484.061L66.3642 503.884C89.6591 521.628 115.528 535.711 143.076 545.643L144.054 538.064C144.139 537.446 144.435 536.877 144.892 536.453C145.349 536.028 145.939 535.775 146.561 535.736C147.183 535.696 147.8 535.873 148.307 536.236C148.814 536.599 149.179 537.127 149.342 537.728L152.312 548.799C176.31 556.538 201.23 561.05 226.417 562.216L217.861 476.621Z" fill="#2F2E41"/>
<path d="M169.462 189.988C186.757 172.693 186.757 144.652 169.462 127.357C152.167 110.063 124.126 110.063 106.832 127.357C89.5366 144.652 89.5366 172.693 106.832 189.988C124.126 207.283 152.167 207.283 169.462 189.988Z" fill="#A0616A"/>
<path d="M226.51 465.96L217.73 438.698L217.581 438.233L217.134 436.836L214.629 429.071C213.819 426.548 213.046 424.015 212.329 421.473C211.668 419.183 211.051 416.886 210.477 414.583C209.658 411.38 208.913 408.165 208.242 404.937C205.97 394.091 204.455 383.099 203.708 372.042C203.503 368.979 203.357 365.909 203.27 362.834C202.725 343.982 204.422 325.132 208.326 306.68C211.725 290.724 209.909 274.099 203.147 259.252C196.386 244.406 185.034 232.123 170.766 224.214C161.403 219.04 151.041 215.931 140.376 215.099C139.64 215.043 138.904 214.996 138.16 214.95C126.894 214.238 115.612 216.065 105.146 220.297C94.681 224.529 85.2998 231.057 77.6952 239.4C73.6221 243.837 70.0844 248.737 67.155 253.999C59.0271 268.644 55.9759 285.567 58.4775 302.127L68.9426 372.396L66.5594 401.976L63.7476 436.836L63.5985 438.698L60.6002 475.867C60.4582 477.6 60.8777 479.332 61.7966 480.808C62.7155 482.283 64.085 483.424 65.7025 484.061C66.6499 484.44 67.6616 484.633 68.6822 484.629C68.8313 484.629 68.9708 484.629 69.12 484.619L217.86 476.621L219.22 476.547C220.461 476.482 221.67 476.134 222.754 475.527C223.839 474.921 224.769 474.073 225.474 473.05C226.178 472.027 226.638 470.855 226.818 469.626C226.998 468.397 226.892 467.143 226.51 465.96Z" fill="#CCCCCC"/>
<path d="M185.142 133.644C175.022 140.619 163.01 144.332 150.719 144.282C155.103 147.322 160.095 149.376 165.349 150.301C149.007 153.807 132.118 153.901 115.738 150.58C112.097 149.996 108.584 148.79 105.353 147.013C102.207 145.104 99.5765 142.064 98.9421 138.44C97.8537 132.222 102.699 126.572 107.734 122.765C115.443 117.025 124.332 113.07 133.758 111.186C143.183 109.303 152.909 109.538 162.232 111.875C168.32 113.449 174.419 116.107 178.373 120.996C182.327 125.885 183.498 133.422 179.731 138.457L185.142 133.644Z" fill="#2F2E41"/>
<path d="M187.406 414.949C184.573 416.212 181.497 416.839 178.396 416.784C175.295 416.73 172.243 415.997 169.455 414.636C166.668 413.275 164.213 411.319 162.264 408.907C160.314 406.494 158.917 403.684 158.171 400.673L83.0846 393.812L107.542 363.201L175.095 374.409C180.236 373.492 185.536 374.491 189.989 377.219C194.442 379.947 197.74 384.214 199.257 389.211C200.774 394.208 200.406 399.588 198.222 404.332C196.038 409.075 192.189 412.853 187.406 414.949Z" fill="#A0616A"/>
<path d="M145.823 360.171L128.849 357.517L111.726 354.836C109.882 354.548 108.12 353.873 106.555 352.855C104.991 351.838 103.659 350.501 102.648 348.932C101.636 347.363 100.968 345.598 100.688 343.753C100.407 341.908 100.52 340.024 101.019 338.225L115.879 284.688C117.677 278.081 117.179 271.059 114.466 264.771C111.753 258.484 106.985 253.304 100.944 250.08C96.8634 247.903 92.3315 246.706 87.7077 246.585C83.084 246.463 78.4955 247.421 74.3062 249.381C70.1039 251.311 66.4071 254.19 63.5068 257.791C60.6066 261.393 58.5821 265.618 57.593 270.135L38.8504 354.501C37.5878 360.192 37.5696 366.088 38.7969 371.787C40.0243 377.485 42.4682 382.851 45.9615 387.518C49.4548 392.184 53.9151 396.041 59.037 398.824C64.159 401.608 69.8217 403.251 75.6378 403.643L140.469 407.991C142.84 408.153 145.184 407.419 147.04 405.935C148.895 404.45 150.125 402.323 150.487 399.975C150.515 399.844 150.524 399.714 150.543 399.584L153.755 370.869L153.783 370.608C154.06 368.178 153.386 365.734 151.902 363.788C150.419 361.843 148.24 360.547 145.823 360.171Z" fill="#CCCCCC"/>
<path d="M433.041 315.665L429.155 317.785L381.287 343.903L377.401 346.023C375.516 347.054 374.117 348.791 373.511 350.853C372.904 352.915 373.141 355.133 374.168 357.02L409.815 422.352C410.846 424.238 412.583 425.637 414.645 426.243C416.707 426.849 418.925 426.613 420.812 425.586L420.822 425.58L476.442 395.233L476.452 395.228C478.337 394.196 479.736 392.459 480.342 390.397C480.948 388.335 480.712 386.117 479.685 384.23L444.038 318.898C443.007 317.013 441.27 315.613 439.208 315.007C437.146 314.401 434.928 314.638 433.041 315.665Z" fill="#E6E6E6"/>
<path d="M434.158 317.713L429.556 320.224L383.12 345.56L378.518 348.071C377.176 348.806 376.18 350.043 375.748 351.511C375.316 352.979 375.485 354.559 376.216 355.903L411.863 421.235C412.597 422.577 413.834 423.574 415.303 424.005C416.771 424.437 418.35 424.269 419.694 423.537L419.704 423.532L475.324 393.185L475.334 393.179C476.676 392.445 477.673 391.208 478.104 389.739C478.536 388.271 478.368 386.692 477.636 385.348L441.989 320.015C441.255 318.673 440.018 317.677 438.55 317.245C437.082 316.813 435.502 316.982 434.158 317.713Z" fill="white"/>
<path d="M435.464 336.158C435.291 335.845 435.001 335.612 434.658 335.511C434.314 335.41 433.945 335.448 433.629 335.618L431.777 336.633L412.885 346.94C412.572 347.113 412.341 347.402 412.241 347.745C412.141 348.088 412.181 348.457 412.352 348.77C412.523 349.084 412.811 349.317 413.153 349.419C413.496 349.521 413.864 349.483 414.179 349.314L434.924 337.992C435.237 337.819 435.47 337.53 435.571 337.186C435.672 336.843 435.634 336.473 435.464 336.158Z" fill="#E6E6E6"/>
<path d="M442.531 337.49C442.446 337.334 442.332 337.197 442.195 337.086C442.057 336.975 441.899 336.893 441.729 336.843C441.559 336.794 441.381 336.779 441.206 336.799C441.03 336.819 440.86 336.873 440.706 336.959L415.073 350.944C414.917 351.029 414.78 351.144 414.67 351.282C414.559 351.419 414.476 351.578 414.426 351.748C414.376 351.918 414.361 352.096 414.38 352.272C414.399 352.448 414.452 352.618 414.537 352.773C414.622 352.929 414.737 353.066 414.875 353.177C415.013 353.288 415.172 353.37 415.341 353.42C415.511 353.47 415.689 353.486 415.865 353.466C416.041 353.447 416.212 353.394 416.367 353.309L417.559 352.657L425.017 348.588H425.026L441.991 339.324C442.148 339.24 442.286 339.126 442.399 338.988C442.511 338.85 442.595 338.691 442.645 338.52C442.696 338.349 442.711 338.17 442.692 337.993C442.672 337.816 442.617 337.645 442.531 337.49Z" fill="#E6E6E6"/>
<path d="M414.673 359.78L406.535 344.855C406.45 344.705 406.31 344.594 406.145 344.547C405.979 344.5 405.802 344.52 405.651 344.603L401.703 346.754L399.655 347.871L388.659 353.867L386.526 355.031C386.376 355.116 386.266 355.256 386.219 355.422C386.172 355.588 386.192 355.765 386.275 355.916L386.796 356.875L394.412 370.841C394.495 370.99 394.634 371.1 394.798 371.147C394.962 371.195 395.138 371.175 395.288 371.092L408.416 363.932L410.464 362.815L414.412 360.664C414.488 360.624 414.554 360.569 414.608 360.502C414.662 360.435 414.703 360.359 414.727 360.277C414.751 360.194 414.759 360.108 414.75 360.023C414.74 359.938 414.714 359.855 414.673 359.78Z" fill="#E6E6E6"/>
<path d="M445.752 355.096C445.581 354.783 445.293 354.55 444.951 354.449C444.609 354.348 444.241 354.387 443.927 354.556L415.79 369.91C415.541 370.046 415.342 370.257 415.22 370.512C415.098 370.768 415.06 371.056 415.11 371.334C415.13 371.479 415.177 371.618 415.25 371.744C415.321 371.873 415.412 371.989 415.52 372.089L415.529 372.098C415.738 372.285 415.999 372.404 416.277 372.437C416.556 372.47 416.837 372.417 417.084 372.284L445.222 356.931C445.377 356.845 445.514 356.73 445.625 356.592C445.736 356.453 445.819 356.294 445.868 356.124C445.917 355.953 445.932 355.775 445.912 355.598C445.893 355.422 445.838 355.252 445.752 355.096Z" fill="#E6E6E6"/>
<path d="M452.829 356.428C452.743 356.273 452.628 356.136 452.489 356.025C452.351 355.914 452.192 355.832 452.021 355.782C451.851 355.733 451.673 355.718 451.496 355.738C451.32 355.757 451.15 355.812 450.994 355.897L417.969 373.914C417.721 374.045 417.521 374.252 417.398 374.505C417.276 374.758 417.238 375.043 417.289 375.32V375.329C417.309 375.473 417.356 375.612 417.429 375.739C417.501 375.872 417.595 375.991 417.708 376.092C417.914 376.284 418.176 376.405 418.455 376.438C418.735 376.472 419.017 376.416 419.263 376.279L452.289 358.262C452.603 358.09 452.836 357.8 452.937 357.456C453.038 357.113 452.999 356.743 452.829 356.428Z" fill="#E6E6E6"/>
<path d="M406.366 384.855C409.529 384.855 412.092 382.291 412.092 379.128C412.092 375.965 409.529 373.402 406.366 373.402C403.203 373.402 400.639 375.965 400.639 379.128C400.639 382.291 403.203 384.855 406.366 384.855Z" fill="#E6E6E6"/>
<path d="M449.8 290.525L445.914 292.645L398.046 318.763L394.161 320.883C392.275 321.915 390.876 323.652 390.27 325.714C389.664 327.775 389.9 329.993 390.928 331.881L426.574 397.213C427.606 399.098 429.343 400.497 431.404 401.104C433.466 401.71 435.684 401.473 437.572 400.446L437.582 400.441L493.201 370.094L493.211 370.088C495.096 369.057 496.496 367.32 497.102 365.258C497.708 363.196 497.471 360.978 496.444 359.09L460.798 293.758C459.766 291.873 458.029 290.474 455.967 289.868C453.906 289.262 451.688 289.498 449.8 290.525Z" fill="#CCCCCC"/>
<path d="M450.917 292.574L446.315 295.085L399.88 320.421L395.278 322.932C393.935 323.666 392.939 324.903 392.507 326.371C392.076 327.84 392.244 329.419 392.976 330.763L428.622 396.095C429.357 397.438 430.594 398.434 432.062 398.866C433.53 399.298 435.11 399.129 436.454 398.398L436.464 398.392L492.083 368.045L492.093 368.04C493.436 367.305 494.432 366.068 494.864 364.6C495.295 363.132 495.127 361.552 494.396 360.208L458.749 294.876C458.014 293.533 456.777 292.537 455.309 292.105C453.841 291.674 452.262 291.842 450.917 292.574Z" fill="white"/>
<path d="M452.223 311.019C452.051 310.705 451.761 310.473 451.417 310.372C451.074 310.271 450.704 310.309 450.389 310.479L440.836 315.693L438.173 317.146L429.645 321.801C429.332 321.974 429.1 322.263 429.001 322.606C428.901 322.949 428.94 323.318 429.111 323.631C429.282 323.945 429.57 324.178 429.913 324.28C430.255 324.382 430.624 324.344 430.939 324.175L440.995 318.691L443.099 317.537L451.683 312.853C451.997 312.68 452.229 312.391 452.331 312.047C452.432 311.704 452.393 311.334 452.223 311.019Z" fill="#CCCCCC"/>
<path d="M459.29 312.35C459.206 312.195 459.092 312.058 458.954 311.947C458.816 311.836 458.658 311.753 458.488 311.704C458.319 311.655 458.141 311.639 457.965 311.659C457.79 311.679 457.62 311.734 457.465 311.82L444.141 319.091L442.093 320.209L431.832 325.804C431.677 325.889 431.54 326.004 431.429 326.142C431.318 326.28 431.235 326.438 431.186 326.608C431.136 326.778 431.12 326.956 431.139 327.132C431.158 327.308 431.212 327.479 431.297 327.634C431.382 327.789 431.497 327.926 431.635 328.037C431.773 328.148 431.931 328.231 432.101 328.281C432.271 328.33 432.449 328.346 432.625 328.327C432.801 328.308 432.971 328.254 433.127 328.169L443.387 322.574L445.436 321.456L458.75 314.185C458.907 314.101 459.046 313.986 459.158 313.848C459.271 313.71 459.354 313.551 459.405 313.381C459.455 313.21 459.471 313.031 459.451 312.854C459.431 312.677 459.377 312.506 459.29 312.35Z" fill="#CCCCCC"/>
<path d="M431.433 334.64L424.943 322.741L423.826 320.693L423.295 319.715C423.21 319.565 423.07 319.455 422.904 319.408C422.739 319.361 422.561 319.381 422.41 319.464L409.236 326.652L403.286 329.892C403.136 329.977 403.025 330.117 402.978 330.283C402.931 330.448 402.951 330.626 403.034 330.776L403.565 331.745L404.142 332.816L404.683 333.793V333.803L411.172 345.702C411.255 345.851 411.394 345.961 411.558 346.008C411.722 346.055 411.898 346.035 412.047 345.953L431.172 335.525C431.247 335.484 431.314 335.429 431.368 335.363C431.422 335.296 431.462 335.219 431.487 335.137C431.511 335.055 431.519 334.969 431.509 334.883C431.5 334.798 431.474 334.716 431.433 334.64Z" fill="#84CC16"/>
<path d="M462.512 329.957C462.341 329.644 462.053 329.411 461.711 329.31C461.369 329.209 461 329.247 460.687 329.417L452.279 334.007L450.231 335.125L442.111 339.547L432.549 344.771C432.393 344.856 432.256 344.971 432.144 345.109C432.033 345.247 431.95 345.406 431.899 345.576C431.849 345.746 431.833 345.925 431.852 346.101C431.871 346.278 431.924 346.449 432.009 346.605C432.094 346.761 432.209 346.899 432.347 347.01C432.486 347.122 432.644 347.205 432.815 347.255C432.985 347.305 433.163 347.321 433.34 347.302C433.517 347.283 433.688 347.23 433.844 347.145L451.525 337.499L453.573 336.382L461.981 331.791C462.137 331.706 462.274 331.591 462.385 331.452C462.496 331.314 462.578 331.155 462.627 330.985C462.677 330.814 462.692 330.636 462.672 330.459C462.652 330.283 462.598 330.112 462.512 329.957Z" fill="#CCCCCC"/>
<path d="M469.588 331.288C469.502 331.133 469.387 330.996 469.249 330.885C469.11 330.775 468.951 330.692 468.781 330.643C468.61 330.594 468.432 330.578 468.256 330.598C468.08 330.618 467.909 330.672 467.754 330.758L454.467 338.011L452.419 339.128L434.728 348.774C434.572 348.859 434.434 348.973 434.323 349.111C434.211 349.249 434.127 349.408 434.077 349.578C434.027 349.748 434.011 349.927 434.03 350.103C434.049 350.28 434.102 350.451 434.187 350.607C434.273 350.762 434.388 350.9 434.526 351.011C434.665 351.122 434.824 351.205 434.994 351.254C435.165 351.304 435.343 351.319 435.52 351.299C435.696 351.28 435.867 351.225 436.022 351.139L453.704 341.493L455.752 340.376L469.048 333.123C469.362 332.95 469.595 332.661 469.696 332.317C469.797 331.973 469.759 331.604 469.588 331.288Z" fill="#CCCCCC"/>
<path d="M423.125 359.716C426.288 359.716 428.852 357.152 428.852 353.989C428.852 350.826 426.288 348.262 423.125 348.262C419.963 348.262 417.399 350.826 417.399 353.989C417.399 357.152 419.963 359.716 423.125 359.716Z" fill="#CCCCCC"/>
<path d="M426.972 386.184C427.936 386.279 428.891 386.45 429.828 386.695L494.771 329.083L490.572 308.415L520.935 298L531.925 333.866C532.813 336.764 532.737 339.871 531.709 342.722C530.68 345.573 528.755 348.013 526.222 349.676L443.659 403.883C443.78 407.612 442.764 411.291 440.744 414.428C438.724 417.566 435.797 420.014 432.352 421.448C428.907 422.881 425.107 423.232 421.458 422.453C417.808 421.674 414.482 419.803 411.923 417.088C409.363 414.373 407.69 410.943 407.128 407.254C406.565 403.565 407.138 399.792 408.772 396.437C410.406 393.082 413.022 390.304 416.273 388.473C419.524 386.641 423.256 385.843 426.972 386.184Z" fill="#FFB8B8"/>
<path d="M539.475 303.161L521.077 268.022C519.183 262.677 515.287 258.278 510.211 255.752C505.135 253.226 499.276 252.771 493.871 254.484C493.666 254.539 493.47 254.605 493.266 254.679C487.788 256.594 483.294 260.603 480.77 265.828C478.246 271.053 477.897 277.065 479.802 282.546L487.185 321.382C487.397 322.494 487.846 323.547 488.501 324.469C489.157 325.391 490.004 326.161 490.984 326.726C492.056 327.353 493.263 327.711 494.504 327.769C495.524 327.834 496.547 327.691 497.511 327.35L501.459 325.972L526.803 317.146L535.09 314.259C536.159 313.885 537.134 313.286 537.951 312.501C538.767 311.717 539.405 310.766 539.821 309.713C540.237 308.66 540.421 307.53 540.362 306.399C540.302 305.268 540 304.164 539.475 303.161Z" fill="#9732D4"/>
<path d="M608.928 438.699H0.931083C0.684144 438.699 0.447319 438.6 0.272707 438.426C0.0980953 438.251 0 438.014 0 437.768C0 437.521 0.0980953 437.284 0.272707 437.109C0.447319 436.934 0.684144 436.836 0.931083 436.836H608.928C609.175 436.836 609.412 436.934 609.587 437.109C609.761 437.284 609.859 437.521 609.859 437.768C609.859 438.014 609.761 438.251 609.587 438.426C609.412 438.6 609.175 438.699 608.928 438.699Z" fill="#3F3D56"/>
<path d="M105.674 421.473V421.939C105.678 425.096 106.597 428.183 108.321 430.828C110.045 433.472 112.499 435.559 115.386 436.836C117.456 437.762 119.7 438.238 121.968 438.233H272.338V421.473H105.674Z" fill="#3F3D56"/>
<path d="M377.327 311.019C374.941 306.093 371.267 301.904 366.694 298.896C364.621 297.524 362.385 296.417 360.037 295.6C356.837 294.483 353.473 293.913 350.084 293.915H205.766C197.743 293.924 190.052 297.115 184.379 302.788C178.706 308.461 175.515 316.153 175.506 324.175V407.973C175.503 409.149 175.571 410.324 175.711 411.492C175.915 413.239 176.27 414.965 176.772 416.65C177.269 418.311 177.911 419.925 178.69 421.473C181.196 426.51 185.059 430.747 189.842 433.708C194.625 436.668 200.14 438.236 205.766 438.233H350.084C354.058 438.234 357.993 437.453 361.665 435.933C365.337 434.412 368.674 432.184 371.484 429.373C374.294 426.563 376.523 423.227 378.043 419.555C379.564 415.883 380.345 411.947 380.344 407.973V324.175C380.351 319.618 379.319 315.118 377.327 311.019Z" fill="#3F3D56"/>
<path d="M285.839 373.523C289.953 373.523 293.287 370.188 293.287 366.074C293.287 361.96 289.953 358.625 285.839 358.625C281.725 358.625 278.39 361.96 278.39 366.074C278.39 370.188 281.725 373.523 285.839 373.523Z" fill="white"/>
</svg>
