<svg width="709" height="906" viewBox="0 0 709 906" fill="none" xmlns="http://www.w3.org/2000/svg">
<path d="M636.583 905.167H0.00146484V252.017C0.00146484 113.054 113.055 0 252.018 0H384.567C523.529 0 636.583 113.054 636.583 252.017V905.167Z" fill="#F2F2F2"/>
<path d="M504.034 905.167H0.000854154V252.017C-0.138277 198.769 16.7229 146.868 48.1294 103.869C49.2871 102.291 50.4419 100.733 51.6329 99.1925C66.824 79.2685 84.9019 61.7217 105.27 47.1313C106.42 46.2942 107.576 45.4716 108.748 44.6489C125.791 32.8546 144.227 23.2129 163.637 15.9435C164.79 15.5066 165.963 15.0689 167.137 14.649C184.691 8.38449 202.888 4.09331 221.392 1.85473C222.539 1.69803 223.717 1.5754 224.894 1.45278C242.926 -0.475227 261.112 -0.475227 279.144 1.45278C280.318 1.5754 281.496 1.69801 282.657 1.85641C301.156 4.09514 319.348 8.38579 336.898 14.6491C338.072 15.0689 339.245 15.5066 340.401 15.9444C359.571 23.1222 377.791 32.6199 394.653 44.2257C395.824 45.0305 396.997 45.8531 398.152 46.6758C409.569 54.8253 420.293 63.9044 430.214 73.8203C438.17 81.7739 445.584 90.2521 452.406 99.1977C453.593 100.733 454.748 102.291 455.903 103.866C487.311 146.866 504.173 198.768 504.034 252.017V905.167Z" fill="#2F2E41"/>
<path d="M463.049 613.037C478.46 613.037 490.954 600.544 490.954 585.132C490.954 569.721 478.46 557.227 463.049 557.227C447.638 557.227 435.144 569.721 435.144 585.132C435.144 600.544 447.638 613.037 463.049 613.037Z" fill="#F2F2F2"/>
<path d="M584.434 885.604H563.052L552.878 803.131L584.437 803.133L584.434 885.604Z" fill="#FFB8B8"/>
<path d="M547.779 879.494H589.015V905.458H521.815C521.815 902.048 522.487 898.672 523.791 895.522C525.096 892.372 527.009 889.51 529.42 887.099C531.83 884.688 534.693 882.775 537.843 881.47C540.993 880.166 544.369 879.494 547.779 879.494Z" fill="#2F2E41"/>
<path d="M690.822 885.604H669.44L659.267 803.131L690.825 803.133L690.822 885.604Z" fill="#FFB8B8"/>
<path d="M654.166 879.494H695.402V905.458H628.203C628.203 902.048 628.874 898.672 630.179 895.522C631.484 892.372 633.396 889.51 635.807 887.099C638.218 884.688 641.08 882.775 644.23 881.47C647.38 880.166 650.757 879.494 654.166 879.494Z" fill="#2F2E41"/>
<path d="M477.173 590.66C475.634 588.394 474.612 585.818 474.177 583.113C473.742 580.409 473.905 577.642 474.655 575.008C475.405 572.374 476.723 569.936 478.518 567.866C480.312 565.796 482.538 564.145 485.039 563.029L557.724 362.694L593.49 382.213L510.499 573.66C512.096 577.986 512.05 582.748 510.371 587.042C508.691 591.337 505.495 594.867 501.387 596.962C497.279 599.058 492.545 599.574 488.082 598.412C483.619 597.251 479.738 594.492 477.173 590.66Z" fill="#FFB8B8"/>
<path d="M679.9 628.304C677.523 626.941 675.475 625.075 673.898 622.835C672.321 620.595 671.255 618.037 670.774 615.34C670.293 612.644 670.409 609.875 671.114 607.228C671.819 604.581 673.096 602.121 674.854 600.021L652.337 388.101L693.039 389.961L702.397 598.412C705.729 601.6 707.776 605.9 708.15 610.496C708.524 615.092 707.199 619.666 704.426 623.351C701.652 627.035 697.624 629.575 693.104 630.487C688.583 631.4 683.885 630.623 679.9 628.304Z" fill="#FFB8B8"/>
<path d="M614.967 325.587C638.625 325.587 657.803 306.409 657.803 282.752C657.803 259.094 638.625 239.916 614.967 239.916C591.31 239.916 572.131 259.094 572.131 282.752C572.131 306.409 591.31 325.587 614.967 325.587Z" fill="#FFB8B8"/>
<path d="M677.814 586.374H548.672L548.827 585.37C549.059 583.867 571.843 434.615 555.039 385.786C553.353 380.988 553.501 375.735 555.456 371.04C557.41 366.344 561.032 362.537 565.625 360.352C589.643 349.041 635.749 335.113 674.664 368.914C680.39 373.969 684.862 380.288 687.725 387.37C690.588 394.452 691.765 402.103 691.161 409.718L677.814 586.374Z" fill="#84CC16"/>
<path d="M575.287 450.404L517.146 438.609L544.399 374.027C546.03 367.772 550.075 362.419 555.647 359.142C561.219 355.866 567.864 354.933 574.123 356.549C580.382 358.165 585.745 362.197 589.035 367.761C592.325 373.326 593.273 379.968 591.673 386.231L575.287 450.404Z" fill="#84CC16"/>
<path d="M649.751 472.306L646.256 392.181C643.606 377.119 652.228 362.88 665.488 360.553C678.753 358.234 691.705 368.681 694.367 383.853L707.505 458.722L649.751 472.306Z" fill="#84CC16"/>
<path d="M675.329 570.514C696.109 649.654 698.376 750.274 692.77 860.028L664.865 856.54L614.287 647.253L586.382 860.028L554.989 858.284C545.61 743.125 536.479 644.262 551.501 579.235L675.329 570.514Z" fill="#2F2E41"/>
<path d="M643.192 315.856C635.2 324.369 620.36 319.799 619.318 308.17C619.237 307.267 619.243 306.358 619.336 305.457C619.874 300.305 622.85 295.629 622.137 290.19C621.975 288.836 621.471 287.546 620.671 286.442C614.304 277.915 599.355 290.256 593.345 282.537C589.66 277.803 593.992 270.351 591.164 265.06C587.432 258.078 576.376 261.522 569.444 257.698C561.73 253.444 562.192 241.609 567.269 234.41C573.461 225.631 584.319 220.947 595.04 220.272C605.762 219.597 616.41 222.495 626.42 226.396C637.793 230.828 649.071 236.954 656.07 246.954C664.582 259.116 665.401 275.466 661.144 289.687C658.555 298.337 649.717 308.905 643.192 315.856Z" fill="#2F2E41"/>
<path d="M365.382 715.937H138.654C135.668 715.953 132.798 714.784 130.673 712.686C128.547 710.589 127.341 707.734 127.318 704.748V198.675C127.341 195.689 128.547 192.834 130.673 190.737C132.798 188.639 135.668 187.47 138.654 187.486H365.382C368.368 187.47 371.238 188.639 373.364 190.737C375.489 192.834 376.695 195.689 376.718 198.675V704.748C376.695 707.734 375.489 710.589 373.364 712.686C371.238 714.784 368.368 715.953 365.382 715.937Z" fill="white"/>
<path d="M376.718 351.236H127.318V354.724H376.718V351.236Z" fill="#CCCCCC"/>
<path d="M377.591 550.251H128.19V553.739H377.591V550.251Z" fill="#CCCCCC"/>
<path d="M209.288 187.486H205.8V717.681H209.288V187.486Z" fill="#CCCCCC"/>
<path d="M296.492 187.486H293.004V717.681H296.492V187.486Z" fill="#CCCCCC"/>
</svg>
