<svg width="344" height="94" viewBox="0 0 344 94" fill="none" xmlns="http://www.w3.org/2000/svg">
<path d="M5.7791 54V23.4434H12.7617V28.5362H13.08C13.6371 26.7723 14.592 25.4129 15.9447 24.458C17.3107 23.4899 18.8691 23.0058 20.6197 23.0058C21.0176 23.0058 21.4619 23.0257 21.9526 23.0655C22.4566 23.092 22.8743 23.1384 23.2059 23.2047V29.8293C22.9008 29.7232 22.4168 29.6303 21.7537 29.5508C21.1038 29.4579 20.4738 29.4115 19.8638 29.4115C18.5508 29.4115 17.3704 29.6967 16.3227 30.2669C15.2882 30.824 14.4726 31.5998 13.8758 32.5945C13.279 33.5892 12.9806 34.7364 12.9806 36.0361V54H5.7791ZM40.0607 54.5968C37.0767 54.5968 34.4905 53.9403 32.3022 52.6273C30.1139 51.3144 28.4163 49.4775 27.2095 47.1168C26.0159 44.7561 25.419 41.9975 25.419 38.8411C25.419 35.6846 26.0159 32.9194 27.2095 30.5455C28.4163 28.1715 30.1139 26.328 32.3022 25.015C34.4905 23.7021 37.0767 23.0456 40.0607 23.0456C43.0448 23.0456 45.6309 23.7021 47.8192 25.015C50.0075 26.328 51.6985 28.1715 52.8921 30.5455C54.099 32.9194 54.7024 35.6846 54.7024 38.8411C54.7024 41.9975 54.099 44.7561 52.8921 47.1168C51.6985 49.4775 50.0075 51.3144 47.8192 52.6273C45.6309 53.9403 43.0448 54.5968 40.0607 54.5968ZM40.1005 48.8277C41.7185 48.8277 43.0713 48.3834 44.1588 47.4948C45.2463 46.593 46.0553 45.3861 46.5858 43.8742C47.1296 42.3622 47.4015 40.6779 47.4015 38.8212C47.4015 36.9512 47.1296 35.2602 46.5858 33.7483C46.0553 32.2231 45.2463 31.0096 44.1588 30.1078C43.0713 29.206 41.7185 28.755 40.1005 28.755C38.4427 28.755 37.0634 29.206 35.9627 30.1078C34.8751 31.0096 34.0595 32.2231 33.5157 33.7483C32.9852 35.2602 32.72 36.9512 32.72 38.8212C32.72 40.6779 32.9852 42.3622 33.5157 43.8742C34.0595 45.3861 34.8751 46.593 35.9627 47.4948C37.0634 48.3834 38.4427 48.8277 40.1005 48.8277ZM74.1434 54.5968C71.1594 54.5968 68.5732 53.9403 66.3849 52.6273C64.1966 51.3144 62.499 49.4775 61.2922 47.1168C60.0985 44.7561 59.5017 41.9975 59.5017 38.8411C59.5017 35.6846 60.0985 32.9194 61.2922 30.5455C62.499 28.1715 64.1966 26.328 66.3849 25.015C68.5732 23.7021 71.1594 23.0456 74.1434 23.0456C77.1275 23.0456 79.7136 23.7021 81.9019 25.015C84.0902 26.328 85.7812 28.1715 86.9748 30.5455C88.1817 32.9194 88.7851 35.6846 88.7851 38.8411C88.7851 41.9975 88.1817 44.7561 86.9748 47.1168C85.7812 49.4775 84.0902 51.3144 81.9019 52.6273C79.7136 53.9403 77.1275 54.5968 74.1434 54.5968ZM74.1832 48.8277C75.8012 48.8277 77.154 48.3834 78.2415 47.4948C79.329 46.593 80.138 45.3861 80.6685 43.8742C81.2123 42.3622 81.4842 40.6779 81.4842 38.8212C81.4842 36.9512 81.2123 35.2602 80.6685 33.7483C80.138 32.2231 79.329 31.0096 78.2415 30.1078C77.154 29.206 75.8012 28.755 74.1832 28.755C72.5254 28.755 71.1461 29.206 70.0453 30.1078C68.9578 31.0096 68.1422 32.2231 67.5984 33.7483C67.0679 35.2602 66.8027 36.9512 66.8027 38.8212C66.8027 40.6779 67.0679 42.3622 67.5984 43.8742C68.1422 45.3861 68.9578 46.593 70.0453 47.4948C71.1461 48.3834 72.5254 48.8277 74.1832 48.8277ZM101.462 44.4113L101.442 35.7178H102.596L113.577 23.4434H121.992L108.485 38.483H106.993L101.462 44.4113ZM94.8974 54V13.2579H102.099V54H94.8974ZM114.075 54L104.128 40.0944L108.982 35.0215L122.689 54H114.075ZM126.792 54V23.4434H133.993V54H126.792ZM130.412 19.1066C129.272 19.1066 128.29 18.7287 127.468 17.9727C126.646 17.2035 126.235 16.2817 126.235 15.2075C126.235 14.12 126.646 13.1982 127.468 12.4423C128.29 11.6731 129.272 11.2885 130.412 11.2885C131.566 11.2885 132.548 11.6731 133.357 12.4423C134.179 13.1982 134.59 14.12 134.59 15.2075C134.59 16.2817 134.179 17.2035 133.357 17.9727C132.548 18.7287 131.566 19.1066 130.412 19.1066ZM154.926 54.5968C151.863 54.5968 149.217 53.9602 146.989 52.687C144.774 51.4006 143.07 49.5836 141.876 47.2362C140.683 44.8755 140.086 42.097 140.086 38.9008C140.086 35.7576 140.683 32.999 141.876 30.625C143.083 28.2378 144.767 26.3811 146.929 25.0548C149.091 23.7153 151.631 23.0456 154.548 23.0456C156.432 23.0456 158.209 23.3506 159.88 23.9607C161.564 24.5575 163.05 25.4859 164.336 26.7458C165.636 28.0057 166.657 29.6105 167.4 31.56C168.142 33.4963 168.514 35.804 168.514 38.483V40.6912H143.468V35.8372H161.611C161.597 34.4579 161.299 33.2311 160.715 32.1568C160.132 31.0693 159.316 30.2139 158.268 29.5906C157.234 28.9672 156.027 28.6556 154.648 28.6556C153.176 28.6556 151.883 29.0136 150.769 29.7298C149.655 30.4327 148.786 31.3611 148.163 32.5149C147.552 33.6555 147.241 34.9088 147.228 36.2748V40.5121C147.228 42.2893 147.552 43.8145 148.202 45.0877C148.852 46.3476 149.761 47.3158 150.928 47.9921C152.095 48.6553 153.461 48.9868 155.026 48.9868C156.074 48.9868 157.022 48.8409 157.871 48.5492C158.719 48.2441 159.455 47.7998 160.079 47.2163C160.702 46.6327 161.173 45.9099 161.491 45.0479L168.215 45.8038C167.791 47.581 166.982 49.1327 165.788 50.4589C164.608 51.7719 163.096 52.7931 161.252 53.5226C159.409 54.2387 157.3 54.5968 154.926 54.5968ZM201.83 54.5968C198.78 54.5968 196.161 53.9271 193.972 52.5876C191.797 51.2481 190.12 49.3979 188.939 47.0372C187.772 44.6633 187.189 41.9312 187.189 38.8411C187.189 35.7377 187.786 32.999 188.979 30.625C190.173 28.2378 191.857 26.3811 194.032 25.0548C196.22 23.7153 198.807 23.0456 201.791 23.0456C204.271 23.0456 206.466 23.5031 208.375 24.4182C210.298 25.3201 211.83 26.5999 212.971 28.2577C214.111 29.9022 214.761 31.8253 214.92 34.0268H208.037C207.759 32.5547 207.096 31.3279 206.048 30.3465C205.013 29.3518 203.627 28.8545 201.89 28.8545C200.418 28.8545 199.125 29.2524 198.011 30.0481C196.897 30.8306 196.028 31.9579 195.405 33.43C194.795 34.9022 194.49 36.666 194.49 38.7217C194.49 40.8039 194.795 42.5943 195.405 44.093C196.015 45.5784 196.87 46.7256 197.971 47.5346C199.085 48.3303 200.391 48.7282 201.89 48.7282C202.951 48.7282 203.899 48.5293 204.735 48.1314C205.584 47.7203 206.293 47.1301 206.864 46.3609C207.434 45.5916 207.825 44.6566 208.037 43.5559H214.92C214.748 45.7176 214.111 47.6341 213.011 49.3051C211.91 50.9629 210.411 52.2626 208.515 53.2043C206.618 54.1326 204.39 54.5968 201.83 54.5968ZM234.163 54.5968C231.178 54.5968 228.592 53.9403 226.404 52.6273C224.216 51.3144 222.518 49.4775 221.311 47.1168C220.118 44.7561 219.521 41.9975 219.521 38.8411C219.521 35.6846 220.118 32.9194 221.311 30.5455C222.518 28.1715 224.216 26.328 226.404 25.015C228.592 23.7021 231.178 23.0456 234.163 23.0456C237.147 23.0456 239.733 23.7021 241.921 25.015C244.109 26.328 245.8 28.1715 246.994 30.5455C248.201 32.9194 248.804 35.6846 248.804 38.8411C248.804 41.9975 248.201 44.7561 246.994 47.1168C245.8 49.4775 244.109 51.3144 241.921 52.6273C239.733 53.9403 237.147 54.5968 234.163 54.5968ZM234.202 48.8277C235.82 48.8277 237.173 48.3834 238.261 47.4948C239.348 46.593 240.157 45.3861 240.688 43.8742C241.231 42.3622 241.503 40.6779 241.503 38.8212C241.503 36.9512 241.231 35.2602 240.688 33.7483C240.157 32.2231 239.348 31.0096 238.261 30.1078C237.173 29.206 235.82 28.755 234.202 28.755C232.544 28.755 231.165 29.206 230.064 30.1078C228.977 31.0096 228.161 32.2231 227.618 33.7483C227.087 35.2602 226.822 36.9512 226.822 38.8212C226.822 40.6779 227.087 42.3622 227.618 43.8742C228.161 45.3861 228.977 46.593 230.064 47.4948C231.165 48.3834 232.544 48.8277 234.202 48.8277ZM266.256 54.5371C263.855 54.5371 261.707 53.9204 259.81 52.687C257.914 51.4536 256.415 49.6632 255.314 47.3158C254.214 44.9683 253.663 42.1169 253.663 38.7615C253.663 35.3663 254.22 32.5017 255.334 30.1675C256.462 27.82 257.98 26.0495 259.89 24.8559C261.8 23.649 263.928 23.0456 266.276 23.0456C268.066 23.0456 269.538 23.3506 270.692 23.9607C271.846 24.5575 272.761 25.2803 273.437 26.1291C274.114 26.9646 274.638 27.7537 275.009 28.4964H275.307V13.2579H282.529V54H275.447V49.1858H275.009C274.638 49.9284 274.101 50.7176 273.398 51.5531C272.695 52.3754 271.766 53.0783 270.613 53.6618C269.459 54.2454 268.006 54.5371 266.256 54.5371ZM268.265 48.6287C269.79 48.6287 271.09 48.2176 272.164 47.3953C273.238 46.5598 274.054 45.3993 274.611 43.9139C275.168 42.4286 275.447 40.6978 275.447 38.7217C275.447 36.7456 275.168 35.0281 274.611 33.5693C274.067 32.1104 273.258 30.9765 272.184 30.1675C271.123 29.3585 269.817 28.954 268.265 28.954C266.66 28.954 265.321 29.3717 264.247 30.2073C263.172 31.0428 262.363 32.1966 261.82 33.6687C261.276 35.1409 261.004 36.8252 261.004 38.7217C261.004 40.6315 261.276 42.3357 261.82 43.8344C262.377 45.3198 263.192 46.4935 264.266 47.3555C265.354 48.2043 266.687 48.6287 268.265 48.6287ZM303.73 54.5968C300.667 54.5968 298.021 53.9602 295.793 52.687C293.578 51.4006 291.874 49.5836 290.68 47.2362C289.487 44.8755 288.89 42.097 288.89 38.9008C288.89 35.7576 289.487 32.999 290.68 30.625C291.887 28.2378 293.571 26.3811 295.733 25.0548C297.895 23.7153 300.435 23.0456 303.352 23.0456C305.236 23.0456 307.013 23.3506 308.684 23.9607C310.368 24.5575 311.854 25.4859 313.14 26.7458C314.44 28.0057 315.461 29.6105 316.204 31.56C316.946 33.4963 317.318 35.804 317.318 38.483V40.6912H292.272V35.8372H310.415C310.401 34.4579 310.103 33.2311 309.519 32.1568C308.936 31.0693 308.12 30.2139 307.073 29.5906C306.038 28.9672 304.831 28.6556 303.452 28.6556C301.98 28.6556 300.687 29.0136 299.573 29.7298C298.459 30.4327 297.59 31.3611 296.967 32.5149C296.356 33.6555 296.045 34.9088 296.032 36.2748V40.5121C296.032 42.2893 296.356 43.8145 297.006 45.0877C297.656 46.3476 298.565 47.3158 299.732 47.9921C300.899 48.6553 302.265 48.9868 303.83 48.9868C304.878 48.9868 305.826 48.8409 306.675 48.5492C307.523 48.2441 308.259 47.7998 308.883 47.2163C309.506 46.6327 309.977 45.9099 310.295 45.0479L317.019 45.8038C316.595 47.581 315.786 49.1327 314.592 50.4589C313.412 51.7719 311.9 52.7931 310.057 53.5226C308.213 54.2387 306.104 54.5968 303.73 54.5968ZM323.41 54V23.4434H330.393V28.5362H330.711C331.268 26.7723 332.223 25.4129 333.576 24.458C334.942 23.4899 336.5 23.0058 338.251 23.0058C338.649 23.0058 339.093 23.0257 339.584 23.0655C340.088 23.092 340.505 23.1384 340.837 23.2047V29.8293C340.532 29.7232 340.048 29.6303 339.385 29.5508C338.735 29.4579 338.105 29.4115 337.495 29.4115C336.182 29.4115 335.001 29.6967 333.954 30.2669C332.919 30.824 332.104 31.5998 331.507 32.5945C330.91 33.5892 330.612 34.7364 330.612 36.0361V54H323.41Z" fill="white"/>
<path d="M117.471 74.4783V84.2697H113.533V67.5591H117.297V70.3986H117.493C117.877 69.463 118.49 68.7196 119.332 68.1683C120.18 67.6171 121.228 67.3415 122.476 67.3415C123.629 67.3415 124.633 67.5881 125.489 68.0813C126.352 68.5745 127.02 69.2889 127.491 70.2245C127.97 71.1601 128.206 72.2952 128.198 73.6298V84.2697H124.26V74.239C124.26 73.122 123.97 72.2481 123.39 71.6171C122.817 70.9861 122.022 70.6706 121.007 70.6706C120.318 70.6706 119.705 70.8229 119.168 71.1275C118.639 71.4249 118.222 71.8564 117.917 72.4221C117.62 72.9879 117.471 73.6733 117.471 74.4783ZM139.6 84.5961C137.924 84.5961 136.477 84.248 135.259 83.5517C134.048 82.8482 133.116 81.8545 132.463 80.5707C131.81 79.2797 131.484 77.7603 131.484 76.0123C131.484 74.2934 131.81 72.7848 132.463 71.4865C133.123 70.181 134.044 69.1656 135.226 68.4403C136.409 67.7078 137.797 67.3415 139.393 67.3415C140.423 67.3415 141.395 67.5083 142.309 67.842C143.23 68.1683 144.042 68.676 144.746 69.3651C145.456 70.0541 146.015 70.9317 146.421 71.9979C146.827 73.0568 147.03 74.3188 147.03 75.7839V76.9915H133.333V74.3369H143.255C143.248 73.5826 143.085 72.9117 142.766 72.3242C142.447 71.7295 142 71.2617 141.428 70.9208C140.862 70.5799 140.202 70.4095 139.447 70.4095C138.642 70.4095 137.935 70.6053 137.326 70.997C136.717 71.3814 136.242 71.8891 135.901 72.5201C135.567 73.1438 135.397 73.8292 135.389 74.5763V76.8935C135.389 77.8654 135.567 78.6995 135.923 79.3958C136.278 80.0848 136.775 80.6143 137.413 80.9842C138.051 81.3468 138.798 81.5281 139.654 81.5281C140.227 81.5281 140.746 81.4483 141.21 81.2888C141.674 81.122 142.077 80.879 142.418 80.5599C142.758 80.2407 143.016 79.8455 143.19 79.374L146.867 79.7874C146.635 80.7593 146.193 81.6079 145.54 82.3332C144.894 83.0512 144.068 83.6097 143.059 84.0086C142.051 84.4003 140.898 84.5961 139.6 84.5961ZM158.707 67.5591V70.6053H149.1V67.5591H158.707ZM151.472 63.5555H155.41V79.2435C155.41 79.7729 155.49 80.1791 155.649 80.462C155.816 80.7376 156.034 80.9261 156.302 81.0277C156.571 81.1292 156.868 81.18 157.194 81.18C157.441 81.18 157.666 81.1619 157.869 81.1256C158.079 81.0893 158.239 81.0567 158.348 81.0277L159.011 84.1065C158.801 84.1791 158.5 84.2588 158.108 84.3459C157.724 84.4329 157.252 84.4837 156.694 84.4982C155.708 84.5272 154.819 84.3785 154.028 84.0521C153.238 83.7185 152.611 83.2035 152.146 82.5073C151.689 81.811 151.465 80.9406 151.472 79.8962V63.5555ZM165.449 84.2697L160.727 67.5591H164.742L167.679 79.3087H167.832L170.834 67.5591H174.805L177.808 79.2435H177.971L180.865 67.5591H184.89L180.158 84.2697H176.056L172.923 72.977H172.695L169.561 84.2697H165.449ZM194.451 84.5961C192.819 84.5961 191.404 84.2371 190.208 83.519C189.011 82.801 188.083 81.7965 187.423 80.5055C186.77 79.2145 186.443 77.7059 186.443 75.9797C186.443 74.2535 186.77 72.7413 187.423 71.443C188.083 70.1447 189.011 69.1366 190.208 68.4186C191.404 67.7005 192.819 67.3415 194.451 67.3415C196.082 67.3415 197.497 67.7005 198.693 68.4186C199.89 69.1366 200.815 70.1447 201.468 71.443C202.128 72.7413 202.458 74.2535 202.458 75.9797C202.458 77.7059 202.128 79.2145 201.468 80.5055C200.815 81.7965 199.89 82.801 198.693 83.519C197.497 84.2371 196.082 84.5961 194.451 84.5961ZM194.472 81.4411C195.357 81.4411 196.097 81.1981 196.692 80.7122C197.286 80.219 197.729 79.559 198.019 78.7321C198.316 77.9053 198.465 76.9842 198.465 75.9688C198.465 74.9461 198.316 74.0214 198.019 73.1946C197.729 72.3605 197.286 71.6969 196.692 71.2037C196.097 70.7105 195.357 70.4639 194.472 70.4639C193.566 70.4639 192.811 70.7105 192.209 71.2037C191.615 71.6969 191.169 72.3605 190.871 73.1946C190.581 74.0214 190.436 74.9461 190.436 75.9688C190.436 76.9842 190.581 77.9053 190.871 78.7321C191.169 79.559 191.615 80.219 192.209 80.7122C192.811 81.1981 193.566 81.4411 194.472 81.4411ZM205.8 84.2697V67.5591H209.619V70.3442H209.793C210.098 69.3796 210.62 68.6361 211.36 68.1139C212.107 67.5845 212.959 67.3198 213.916 67.3198C214.134 67.3198 214.377 67.3306 214.645 67.3524C214.921 67.3669 215.149 67.3923 215.331 67.4285V71.0514C215.164 70.9933 214.899 70.9426 214.536 70.899C214.181 70.8483 213.837 70.8229 213.503 70.8229C212.785 70.8229 212.139 70.9788 211.566 71.2907C211.001 71.5953 210.555 72.0196 210.228 72.5636C209.902 73.1075 209.739 73.7349 209.739 74.4457V84.2697H205.8ZM221.537 79.0259L221.526 74.2716H222.157L228.163 67.5591H232.765L225.378 75.7839H224.562L221.537 79.0259ZM217.947 84.2697V61.9889H221.885V84.2697H217.947ZM228.435 84.2697L222.995 76.6651L225.65 73.8909L233.146 84.2697H228.435Z" fill="white"/>
<circle cx="86.3397" cy="75.715" r="3.93893" stroke="#59B71D" stroke-width="1.75064"/>
<rect x="97.4807" y="74.8903" width="6.12723" height="6.12723" rx="0.875318" transform="rotate(41.849 97.4807 74.8903)" stroke="#59B71D" stroke-width="1.75064"/>
<circle cx="97.7189" cy="79.2163" r="2.62595" transform="rotate(41.849 97.7189 79.2163)" stroke="#59B71D" stroke-width="0.875318"/>
<rect x="70.9006" y="77.1509" width="6.12723" height="6.12723" rx="0.875318" transform="rotate(-10.5235 70.9006 77.1509)" stroke="#59B71D" stroke-width="1.75064"/>
<circle cx="74.4723" cy="79.6034" r="2.62595" transform="rotate(-10.5235 74.4723 79.6034)" stroke="#59B71D" stroke-width="0.875318"/>
<path d="M89.8409 75.715H82.8384M86.3397 72.2137V79.2163" stroke="#59B71D" stroke-width="1.75064"/>
<circle cx="258.656" cy="81.354" r="3.93893" stroke="#59B71D" stroke-width="1.75064"/>
<rect x="269.918" y="70.0255" width="6.12723" height="6.12723" rx="0.875318" transform="rotate(41.849 269.918 70.0255)" stroke="#59B71D" stroke-width="1.75064"/>
<circle cx="270.157" cy="74.3515" r="2.62595" transform="rotate(41.849 270.157 74.3515)" stroke="#59B71D" stroke-width="0.875318"/>
<rect x="243.338" y="72.2861" width="6.12723" height="6.12723" rx="0.875318" transform="rotate(-10.5235 243.338 72.2861)" stroke="#59B71D" stroke-width="1.75064"/>
<circle cx="246.91" cy="74.7386" r="2.62595" transform="rotate(-10.5235 246.91 74.7386)" stroke="#59B71D" stroke-width="0.875318"/>
<path d="M262.158 81.3541H255.155M258.656 77.8528V84.8553" stroke="#59B71D" stroke-width="1.75064"/>
</svg>
