<svg width="570" height="155" viewBox="0 0 570 155" fill="none" xmlns="http://www.w3.org/2000/svg">
<path d="M9.5639 90V39.431H21.1197V47.8592H21.6465C22.5683 44.9401 24.1486 42.6903 26.3873 41.1101C28.648 39.5078 31.2269 38.7067 34.1241 38.7067C34.7825 38.7067 35.5178 38.7396 36.3299 38.8055C37.1639 38.8494 37.8553 38.9262 38.404 39.0359V49.9991C37.8992 49.8236 37.0981 49.6699 36.0007 49.5382C34.9252 49.3846 33.8827 49.3078 32.873 49.3078C30.7001 49.3078 28.7467 49.7797 27.0128 50.7234C25.3009 51.6453 23.951 52.9292 22.9634 54.5754C21.9757 56.2215 21.4818 58.12 21.4818 60.271V90H9.5639ZM66.2976 90.9877C61.3592 90.9877 57.0793 89.9012 53.4578 87.7283C49.8364 85.5555 47.027 82.5156 45.0297 78.6088C43.0543 74.702 42.0666 70.1367 42.0666 64.913C42.0666 59.6893 43.0543 55.1131 45.0297 51.1844C47.027 47.2556 49.8364 44.2048 53.4578 42.0319C57.0793 39.859 61.3592 38.7726 66.2976 38.7726C71.236 38.7726 75.5159 39.859 79.1374 42.0319C82.7589 44.2048 85.5573 47.2556 87.5326 51.1844C89.5299 55.1131 90.5286 59.6893 90.5286 64.913C90.5286 70.1367 89.5299 74.702 87.5326 78.6088C85.5573 82.5156 82.7589 85.5555 79.1374 87.7283C75.5159 89.9012 71.236 90.9877 66.2976 90.9877ZM66.3635 81.4401C69.0412 81.4401 71.2799 80.7049 73.0797 79.2343C74.8794 77.7419 76.2183 75.7446 77.0962 73.2424C77.9961 70.7403 78.446 67.9529 78.446 64.8801C78.446 61.7854 77.9961 58.987 77.0962 56.4849C76.2183 53.9608 74.8794 51.9525 73.0797 50.4601C71.2799 48.9676 69.0412 48.2213 66.3635 48.2213C63.6199 48.2213 61.3373 48.9676 59.5156 50.4601C57.7158 51.9525 56.366 53.9608 55.4661 56.4849C54.5882 58.987 54.1492 61.7854 54.1492 64.8801C54.1492 67.9529 54.5882 70.7403 55.4661 73.2424C56.366 75.7446 57.7158 77.7419 59.5156 79.2343C61.3373 80.7049 63.6199 81.4401 66.3635 81.4401ZM122.702 90.9877C117.764 90.9877 113.484 89.9012 109.862 87.7283C106.241 85.5555 103.431 82.5156 101.434 78.6088C99.4588 74.702 98.4711 70.1367 98.4711 64.913C98.4711 59.6893 99.4588 55.1131 101.434 51.1844C103.431 47.2556 106.241 44.2048 109.862 42.0319C113.484 39.859 117.764 38.7726 122.702 38.7726C127.64 38.7726 131.92 39.859 135.542 42.0319C139.163 44.2048 141.962 47.2556 143.937 51.1844C145.934 55.1131 146.933 59.6893 146.933 64.913C146.933 70.1367 145.934 74.702 143.937 78.6088C141.962 82.5156 139.163 85.5555 135.542 87.7283C131.92 89.9012 127.64 90.9877 122.702 90.9877ZM122.768 81.4401C125.446 81.4401 127.684 80.7049 129.484 79.2343C131.284 77.7419 132.623 75.7446 133.501 73.2424C134.401 70.7403 134.851 67.9529 134.851 64.8801C134.851 61.7854 134.401 58.987 133.501 56.4849C132.623 53.9608 131.284 51.9525 129.484 50.4601C127.684 48.9676 125.446 48.2213 122.768 48.2213C120.024 48.2213 117.742 48.9676 115.92 50.4601C114.12 51.9525 112.77 53.9608 111.871 56.4849C110.993 58.987 110.554 61.7854 110.554 64.8801C110.554 67.9529 110.993 70.7403 111.871 73.2424C112.77 75.7446 114.12 77.7419 115.92 79.2343C117.742 80.7049 120.024 81.4401 122.768 81.4401ZM167.913 74.1313L167.88 59.7442H169.79L187.963 39.431H201.889L179.535 64.3204H177.065L167.913 74.1313ZM157.049 90V22.5747H168.966V90H157.049ZM188.786 90L172.325 66.9872L180.358 58.5919L203.041 90H188.786ZM209.832 90V39.431H221.75V90H209.832ZM215.823 32.2539C213.936 32.2539 212.312 31.6284 210.951 30.3773C209.59 29.1043 208.91 27.5789 208.91 25.8011C208.91 24.0013 209.59 22.4759 210.951 21.2249C212.312 19.9519 213.936 19.3154 215.823 19.3154C217.733 19.3154 219.357 19.9519 220.696 21.2249C222.057 22.4759 222.737 24.0013 222.737 25.8011C222.737 27.5789 222.057 29.1043 220.696 30.3773C219.357 31.6284 217.733 32.2539 215.823 32.2539ZM256.392 90.9877C251.322 90.9877 246.943 89.9342 243.256 87.8271C239.591 85.6981 236.77 82.6912 234.795 78.8063C232.82 74.8995 231.832 70.3014 231.832 65.0118C231.832 59.8101 232.82 55.2448 234.795 51.316C236.792 47.3653 239.58 44.2926 243.157 42.0977C246.735 39.881 250.938 38.7726 255.767 38.7726C258.883 38.7726 261.824 39.2774 264.59 40.287C267.377 41.2747 269.836 42.8111 271.965 44.8962C274.116 46.9812 275.806 49.637 277.035 52.8634C278.264 56.0679 278.878 59.8869 278.878 64.3204V67.9748H237.429V59.9417H267.454C267.432 57.6591 266.938 55.6289 265.973 53.8511C265.007 52.0513 263.657 50.6356 261.923 49.6041C260.211 48.5725 258.214 48.0567 255.931 48.0567C253.495 48.0567 251.355 48.6493 249.511 49.8345C247.668 50.9978 246.23 52.5342 245.199 54.4437C244.189 56.3312 243.673 58.4054 243.651 60.666V67.6785C243.651 70.6196 244.189 73.1437 245.264 75.2507C246.34 77.3358 247.843 78.938 249.775 80.0574C251.706 81.1548 253.967 81.7035 256.557 81.7035C258.291 81.7035 259.86 81.4621 261.265 80.9792C262.669 80.4744 263.888 79.7391 264.919 78.7734C265.951 77.8077 266.73 76.6115 267.257 75.1849L278.384 76.4359C277.682 79.377 276.343 81.945 274.368 84.1398C272.415 86.3127 269.912 88.0027 266.862 89.2099C263.811 90.3951 260.321 90.9877 256.392 90.9877ZM334.015 90.9877C328.967 90.9877 324.632 89.8793 321.011 87.6625C317.411 85.4457 314.635 82.3839 312.682 78.4771C310.75 74.5484 309.784 70.027 309.784 64.913C309.784 59.7771 310.772 55.2448 312.747 51.316C314.723 47.3653 317.51 44.2926 321.11 42.0977C324.731 39.881 329.011 38.7726 333.949 38.7726C338.054 38.7726 341.686 39.5298 344.847 41.0442C348.029 42.5367 350.564 44.6547 352.452 47.3983C354.339 50.1199 355.415 53.3024 355.678 56.9458H344.287C343.826 54.5095 342.729 52.4793 340.995 50.8551C339.283 49.209 336.989 48.3859 334.114 48.3859C331.678 48.3859 329.538 49.0444 327.694 50.3613C325.851 51.6562 324.413 53.5219 323.381 55.9581C322.372 58.3944 321.867 61.3135 321.867 64.7155C321.867 68.1614 322.372 71.1244 323.381 73.6046C324.391 76.0628 325.807 77.9613 327.628 79.3002C329.472 80.6171 331.634 81.2755 334.114 81.2755C335.87 81.2755 337.439 80.9463 338.822 80.2879C340.227 79.6075 341.401 78.6308 342.345 77.3578C343.288 76.0848 343.936 74.5374 344.287 72.7157H355.678C355.393 76.2933 354.339 79.4648 352.518 82.2303C350.696 84.9738 348.216 87.1248 345.077 88.6831C341.939 90.2195 338.251 90.9877 334.015 90.9877ZM387.523 90.9877C382.584 90.9877 378.304 89.9012 374.683 87.7283C371.061 85.5555 368.252 82.5156 366.255 78.6088C364.279 74.702 363.292 70.1367 363.292 64.913C363.292 59.6893 364.279 55.1131 366.255 51.1844C368.252 47.2556 371.061 44.2048 374.683 42.0319C378.304 39.859 382.584 38.7726 387.523 38.7726C392.461 38.7726 396.741 39.859 400.362 42.0319C403.984 44.2048 406.782 47.2556 408.758 51.1844C410.755 55.1131 411.754 59.6893 411.754 64.913C411.754 70.1367 410.755 74.702 408.758 78.6088C406.782 82.5156 403.984 85.5555 400.362 87.7283C396.741 89.9012 392.461 90.9877 387.523 90.9877ZM387.588 81.4401C390.266 81.4401 392.505 80.7049 394.305 79.2343C396.104 77.7419 397.443 75.7446 398.321 73.2424C399.221 70.7403 399.671 67.9529 399.671 64.8801C399.671 61.7854 399.221 58.987 398.321 56.4849C397.443 53.9608 396.104 51.9525 394.305 50.4601C392.505 48.9676 390.266 48.2213 387.588 48.2213C384.845 48.2213 382.562 48.9676 380.741 50.4601C378.941 51.9525 377.591 53.9608 376.691 56.4849C375.813 58.987 375.374 61.7854 375.374 64.8801C375.374 67.9529 375.813 70.7403 376.691 73.2424C377.591 75.7446 378.941 77.7419 380.741 79.2343C382.562 80.7049 384.845 81.4401 387.588 81.4401ZM440.635 90.8889C436.662 90.8889 433.107 89.8683 429.968 87.8271C426.829 85.7859 424.349 82.8229 422.527 78.938C420.706 75.0532 419.795 70.3343 419.795 64.7814C419.795 59.1626 420.717 54.4217 422.56 50.5588C424.426 46.674 426.939 43.7439 430.1 41.7685C433.26 39.7712 436.783 38.7726 440.668 38.7726C443.631 38.7726 446.067 39.2774 447.977 40.287C449.886 41.2747 451.401 42.4709 452.52 43.8756C453.639 45.2583 454.506 46.5642 455.121 47.7933H455.615V22.5747H467.565V90H455.845V82.0328H455.121C454.506 83.2619 453.617 84.5678 452.454 85.9505C451.291 87.3113 449.754 88.4746 447.845 89.4403C445.935 90.406 443.532 90.8889 440.635 90.8889ZM443.96 81.1109C446.484 81.1109 448.635 80.4305 450.413 79.0697C452.191 77.687 453.54 75.7665 454.462 73.3083C455.384 70.8501 455.845 67.9858 455.845 64.7155C455.845 61.4452 455.384 58.6029 454.462 56.1886C453.562 53.7743 452.224 51.8977 450.446 50.5588C448.69 49.22 446.528 48.5506 443.96 48.5506C441.304 48.5506 439.087 49.2419 437.31 50.6247C435.532 52.0074 434.193 53.9169 433.293 56.3532C432.393 58.7895 431.943 61.5769 431.943 64.7155C431.943 67.8761 432.393 70.6964 433.293 73.1766C434.215 75.6348 435.565 77.5772 437.343 79.0039C439.142 80.4086 441.348 81.1109 443.96 81.1109ZM502.653 90.9877C497.583 90.9877 493.204 89.9342 489.517 87.8271C485.851 85.6981 483.031 82.6912 481.055 78.8063C479.08 74.8995 478.092 70.3014 478.092 65.0118C478.092 59.8101 479.08 55.2448 481.055 51.316C483.053 47.3653 485.84 44.2926 489.418 42.0977C492.995 39.881 497.198 38.7726 502.027 38.7726C505.144 38.7726 508.085 39.2774 510.85 40.287C513.638 41.2747 516.096 42.8111 518.225 44.8962C520.376 46.9812 522.066 49.637 523.295 52.8634C524.524 56.0679 525.139 59.8869 525.139 64.3204V67.9748H483.689V59.9417H513.715C513.693 57.6591 513.199 55.6289 512.233 53.8511C511.267 52.0513 509.918 50.6356 508.184 49.6041C506.472 48.5725 504.474 48.0567 502.192 48.0567C499.755 48.0567 497.615 48.6493 495.772 49.8345C493.928 50.9978 492.491 52.5342 491.459 54.4437C490.449 56.3312 489.934 58.4054 489.912 60.666V67.6785C489.912 70.6196 490.449 73.1437 491.525 75.2507C492.6 77.3358 494.104 78.938 496.035 80.0574C497.967 81.1548 500.227 81.7035 502.817 81.7035C504.551 81.7035 506.12 81.4621 507.525 80.9792C508.93 80.4744 510.148 79.7391 511.18 78.7734C512.211 77.8077 512.99 76.6115 513.517 75.1849L524.645 76.4359C523.943 79.377 522.604 81.945 520.628 84.1398C518.675 86.3127 516.173 88.0027 513.122 89.2099C510.071 90.3951 506.581 90.9877 502.653 90.9877ZM535.221 90V39.431H546.777V47.8592H547.304C548.226 44.9401 549.806 42.6903 552.045 41.1101C554.305 39.5078 556.884 38.7067 559.781 38.7067C560.44 38.7067 561.175 38.7396 561.987 38.8055C562.821 38.8494 563.513 38.9262 564.061 39.0359V49.9991C563.557 49.8236 562.755 49.6699 561.658 49.5382C560.583 49.3846 559.54 49.3078 558.53 49.3078C556.357 49.3078 554.404 49.7797 552.67 50.7234C550.958 51.6453 549.608 52.9292 548.621 54.5754C547.633 56.2215 547.139 58.12 547.139 60.271V90H535.221Z" fill="white"/>
<path d="M194.407 122.609V138.813H187.889V111.158H194.119V115.857H194.443C195.079 114.309 196.093 113.079 197.485 112.167C198.89 111.254 200.624 110.798 202.689 110.798C204.597 110.798 206.26 111.206 207.676 112.023C209.104 112.839 210.209 114.021 210.989 115.569C211.781 117.118 212.171 118.996 212.159 121.205V138.813H205.642V122.213C205.642 120.365 205.161 118.918 204.201 117.874C203.253 116.83 201.939 116.308 200.258 116.308C199.118 116.308 198.104 116.56 197.215 117.064C196.339 117.556 195.649 118.27 195.145 119.206C194.653 120.143 194.407 121.277 194.407 122.609ZM231.028 139.353C228.255 139.353 225.861 138.777 223.844 137.625C221.84 136.461 220.297 134.816 219.217 132.692C218.137 130.555 217.596 128.041 217.596 125.148C217.596 122.303 218.137 119.806 219.217 117.658C220.309 115.497 221.834 113.817 223.79 112.617C225.747 111.404 228.045 110.798 230.686 110.798C232.39 110.798 233.999 111.074 235.511 111.626C237.035 112.167 238.38 113.007 239.544 114.147C240.72 115.287 241.645 116.74 242.317 118.504C242.989 120.257 243.325 122.345 243.325 124.77V126.768H220.657V122.375H237.077C237.065 121.127 236.795 120.017 236.267 119.044C235.739 118.06 235.001 117.286 234.053 116.722C233.116 116.158 232.024 115.876 230.776 115.876C229.443 115.876 228.273 116.2 227.265 116.848C226.257 117.484 225.47 118.324 224.906 119.368C224.354 120.401 224.072 121.535 224.06 122.771V126.606C224.06 128.215 224.354 129.595 224.942 130.747C225.53 131.888 226.353 132.764 227.409 133.376C228.465 133.976 229.702 134.276 231.118 134.276C232.066 134.276 232.924 134.144 233.693 133.88C234.461 133.604 235.127 133.202 235.691 132.674C236.255 132.146 236.681 131.491 236.969 130.711L243.055 131.395C242.671 133.004 241.939 134.408 240.858 135.608C239.79 136.797 238.422 137.721 236.753 138.381C235.085 139.029 233.176 139.353 231.028 139.353ZM262.648 111.158V116.2H246.75V111.158H262.648ZM250.675 104.533H257.193V130.495C257.193 131.371 257.325 132.044 257.589 132.512C257.865 132.968 258.225 133.28 258.669 133.448C259.113 133.616 259.605 133.7 260.146 133.7C260.554 133.7 260.926 133.67 261.262 133.61C261.61 133.55 261.874 133.496 262.054 133.448L263.152 138.543C262.804 138.663 262.306 138.795 261.658 138.939C261.022 139.083 260.242 139.167 259.317 139.191C257.685 139.239 256.215 138.993 254.906 138.453C253.598 137.901 252.56 137.049 251.792 135.897C251.035 134.744 250.663 133.304 250.675 131.575V104.533ZM273.807 138.813L265.993 111.158H272.636L277.497 130.603H277.75L282.719 111.158H289.29L294.26 130.495H294.53L299.319 111.158H305.981L298.149 138.813H291.361L286.176 120.125H285.798L280.612 138.813H273.807ZM321.802 139.353C319.101 139.353 316.761 138.759 314.78 137.571C312.8 136.383 311.263 134.72 310.171 132.584C309.091 130.447 308.551 127.951 308.551 125.094C308.551 122.237 309.091 119.734 310.171 117.586C311.263 115.437 312.8 113.769 314.78 112.581C316.761 111.392 319.101 110.798 321.802 110.798C324.503 110.798 326.843 111.392 328.824 112.581C330.804 113.769 332.335 115.437 333.415 117.586C334.507 119.734 335.053 122.237 335.053 125.094C335.053 127.951 334.507 130.447 333.415 132.584C332.335 134.72 330.804 136.383 328.824 137.571C326.843 138.759 324.503 139.353 321.802 139.353ZM321.838 134.132C323.302 134.132 324.527 133.73 325.511 132.926C326.495 132.11 327.227 131.017 327.707 129.649C328.2 128.281 328.446 126.756 328.446 125.076C328.446 123.383 328.2 121.853 327.707 120.485C327.227 119.104 326.495 118.006 325.511 117.19C324.527 116.374 323.302 115.966 321.838 115.966C320.338 115.966 319.089 116.374 318.093 117.19C317.109 118.006 316.371 119.104 315.879 120.485C315.398 121.853 315.158 123.383 315.158 125.076C315.158 126.756 315.398 128.281 315.879 129.649C316.371 131.017 317.109 132.11 318.093 132.926C319.089 133.73 320.338 134.132 321.838 134.132ZM340.585 138.813V111.158H346.905V115.767H347.193C347.697 114.171 348.561 112.941 349.786 112.077C351.022 111.2 352.432 110.762 354.017 110.762C354.377 110.762 354.779 110.78 355.223 110.816C355.679 110.84 356.057 110.882 356.357 110.942V116.938C356.081 116.842 355.643 116.758 355.043 116.686C354.455 116.602 353.885 116.56 353.332 116.56C352.144 116.56 351.076 116.818 350.128 117.334C349.191 117.838 348.453 118.54 347.913 119.44C347.373 120.341 347.103 121.379 347.103 122.555V138.813H340.585ZM366.629 130.135L366.611 122.267H367.655L377.593 111.158H385.209L372.984 124.77H371.634L366.629 130.135ZM360.687 138.813V101.94H367.205V138.813H360.687ZM378.044 138.813L369.041 126.228L373.434 121.637L385.839 138.813H378.044Z" fill="white"/>
<circle cx="142.886" cy="125.304" r="6.51866" stroke="#59B71D" stroke-width="2.89718"/>
<rect x="161.323" y="123.939" width="10.1401" height="10.1401" rx="1.44859" transform="rotate(41.849 161.323 123.939)" stroke="#59B71D" stroke-width="2.89718"/>
<circle cx="161.718" cy="131.098" r="4.34577" transform="rotate(41.849 161.718 131.098)" stroke="#59B71D" stroke-width="1.44859"/>
<rect x="117.336" y="127.68" width="10.1401" height="10.1401" rx="1.44859" transform="rotate(-10.5235 117.336 127.68)" stroke="#59B71D" stroke-width="2.89718"/>
<circle cx="123.246" cy="131.738" r="4.34577" transform="rotate(-10.5235 123.246 131.738)" stroke="#59B71D" stroke-width="1.44859"/>
<path d="M148.68 125.304H137.091M142.886 119.51V131.098" stroke="#59B71D" stroke-width="2.89718"/>
<circle cx="428.058" cy="134.635" r="6.51866" stroke="#59B71D" stroke-width="2.89718"/>
<rect x="446.696" y="115.888" width="10.1401" height="10.1401" rx="1.44859" transform="rotate(41.849 446.696 115.888)" stroke="#59B71D" stroke-width="2.89718"/>
<circle cx="447.09" cy="123.047" r="4.34577" transform="rotate(41.849 447.09 123.047)" stroke="#59B71D" stroke-width="1.44859"/>
<rect x="402.708" y="119.629" width="10.1401" height="10.1401" rx="1.44859" transform="rotate(-10.5235 402.708 119.629)" stroke="#59B71D" stroke-width="2.89718"/>
<circle cx="408.619" cy="123.688" r="4.34577" transform="rotate(-10.5235 408.619 123.688)" stroke="#59B71D" stroke-width="1.44859"/>
<path d="M433.853 134.636H422.264M428.059 128.841V140.43" stroke="#59B71D" stroke-width="2.89718"/>
</svg>
