<svg width="879" height="856" viewBox="0 0 879 856" fill="none" xmlns="http://www.w3.org/2000/svg">
<path d="M878.999 848L478.001 774.444V236.096C477.89 186.211 491.304 137.587 516.291 97.303C517.212 95.8247 518.131 94.3655 519.078 92.9222C531.164 74.2564 545.546 57.8177 561.751 44.1487C562.666 43.3644 563.585 42.5937 564.518 41.823C578.077 30.7735 592.744 21.7407 608.186 14.9303C609.103 14.521 610.037 14.1109 610.971 13.7176C624.936 7.84866 639.414 3.82848 654.135 1.73126C655.047 1.58445 655.984 1.46957 656.921 1.35469C671.267 -0.451563 685.736 -0.451563 700.081 1.35469C701.016 1.46957 701.953 1.58444 702.876 1.73283C717.593 3.83019 732.067 7.84988 746.029 13.7177C746.963 14.111 747.897 14.5211 748.816 14.9311C764.068 21.6557 778.563 30.5537 791.978 41.4266C792.91 42.1805 793.843 42.9512 794.762 43.7219C803.845 51.3568 812.376 59.8625 820.269 69.1522C826.599 76.6036 832.498 84.5464 837.925 92.9271C838.869 94.3656 839.788 95.8248 840.708 97.3007C865.695 137.585 879.11 186.21 878.999 236.096V848Z" fill="#F2F2F2"/>
<path d="M146.372 855.157H133.619V107.379C133.619 105.687 134.291 104.065 135.487 102.868C136.683 101.672 138.304 101 139.996 101C141.687 101 143.309 101.672 144.504 102.868C145.7 104.065 146.372 105.687 146.372 107.379V855.157Z" fill="#F2F2F2"/>
<path d="M234.862 198.814H49.3086C47.618 198.812 45.9972 198.139 44.8018 196.943C43.6064 195.747 42.934 194.126 42.9321 192.434V138.566C42.934 136.875 43.6064 135.253 44.8018 134.057C45.9972 132.862 47.618 132.189 49.3086 132.187H234.876C235.964 132.188 237.033 132.466 237.983 132.996L285.969 159.787C286.958 160.339 287.782 161.145 288.357 162.121C288.931 163.098 289.236 164.21 289.238 165.343C289.241 166.476 288.941 167.59 288.371 168.569C287.801 169.548 286.98 170.357 285.993 170.914L237.994 197.991C237.038 198.53 235.96 198.813 234.862 198.814Z" fill="#84CC16"/>
<path d="M240.623 308.677H55.0696C53.9725 308.676 52.8941 308.393 51.9381 307.854L3.93846 280.777C2.95181 280.22 2.13114 279.411 1.56088 278.432C0.990626 277.453 0.691361 276.339 0.693863 275.206C0.696365 274.073 1.00058 272.961 1.57515 271.985C2.14973 271.008 2.97392 270.202 3.96303 269.65L51.9488 242.859C52.8988 242.329 53.9683 242.051 55.0561 242.05H240.623C242.314 242.052 243.935 242.725 245.13 243.921C246.326 245.116 246.998 246.738 247 248.429V302.298C246.998 303.989 246.326 305.61 245.13 306.806C243.935 308.002 242.314 308.675 240.623 308.677Z" fill="#CCCCCC"/>
<path d="M240.93 418.627H55.3758C54.2787 418.626 53.2002 418.343 52.2442 417.804L4.24462 390.727C3.25796 390.17 2.43729 389.361 1.86704 388.382C1.29678 387.403 0.997513 386.289 1.00002 385.156C1.00252 384.023 1.30673 382.911 1.88131 381.935C2.45588 380.958 3.28007 380.152 4.26918 379.6L52.2549 352.809C53.205 352.279 54.2745 352.001 55.3622 352H240.93C242.62 352.002 244.241 352.675 245.436 353.871C246.632 355.066 247.304 356.688 247.306 358.379V412.247C247.304 413.939 246.632 415.56 245.436 416.756C244.241 417.952 242.62 418.625 240.93 418.627Z" fill="#CCCCCC"/>
<path d="M256 813.851L276.749 820L309 738.077L278.377 729L256 813.851Z" fill="#FFB8B8"/>
<path d="M310.306 853.076L247.126 833.642L253.951 806.785L295.164 819.462C300.99 821.254 305.93 825.519 308.898 831.319C311.866 837.119 312.618 843.978 310.989 850.388L310.306 853.076Z" fill="#2F2E41"/>
<path d="M496.007 831.001L517.012 830.999L524.5 743.002L496 743.003L496.007 831.001Z" fill="#FFB8B8"/>
<path d="M557.581 853.07L491.978 853.076L491.975 825.189L534.769 825.185C537.764 825.184 540.73 825.833 543.498 827.094C546.265 828.355 548.78 830.203 550.898 832.533C553.016 834.864 554.697 837.63 555.843 840.675C556.99 843.719 557.58 846.983 557.58 850.279L557.581 853.07Z" fill="#2F2E41"/>
<path d="M341.879 464L294 594.233L489.506 643L492 570.137L403.224 465.147L341.879 464Z" fill="#B3B3B3"/>
<path d="M447.776 262.254C469.509 249.184 477.496 219.204 465.616 195.294C453.736 171.383 426.488 162.596 404.755 175.667C383.023 188.737 375.036 218.716 386.916 242.627C398.796 266.538 426.044 275.325 447.776 262.254Z" fill="#FFB8B8"/>
<path d="M458.733 456L370.535 416.193L362.683 359.105C360.37 342.418 363.981 325.39 372.765 311.564C381.549 297.738 394.829 288.177 409.842 284.871L421.508 282.288C431.092 280.173 440.999 280.669 450.369 283.733C459.74 286.797 468.29 292.337 475.277 299.871C482.122 307.082 487.24 316.049 490.175 325.972C493.11 335.895 493.771 346.465 492.098 356.739C490.78 365.541 487.542 373.859 482.663 380.976C454.955 420.924 458.512 454.133 458.552 454.464L458.733 456Z" fill="#4C2E5E"/>
<path d="M510.5 498.5L450.29 529.001L464.163 387.116L445 281L446.019 281.028C457.164 281.335 467.777 286.403 475.659 295.184C483.541 303.965 488.088 315.785 488.358 328.197L507 432.181L510.5 498.5Z" fill="#2F2E41"/>
<path d="M495.085 815C493.213 814.998 491.399 814.282 489.951 812.974C488.503 811.666 487.511 809.847 487.141 807.824L467.681 701.171C464.127 681.631 457.433 662.948 447.917 646.003L393.006 548.104C392.733 547.617 392.343 547.223 391.88 546.964C391.416 546.705 423 521 390.379 546.638C447.917 560 441.5 559.5 388.944 547.222C479.5 563 495.285 814.471 495.085 815L334.5 799C333.775 800.911 299.161 791.919 297.5 792.89C295.84 793.86 290.454 793.3 288.611 792.89L264.495 787.471C262.429 787.016 246.191 789.386 245 787.471C243.809 785.555 256.64 768.288 257 766L277.793 649.431C281.807 623.384 288.645 597.963 298.161 573.715L364.789 404L463.116 439.591L469.604 515.475L515.036 636.721C518.176 645.095 520.052 653.977 520.591 663.018L528.985 803.146C529.115 805.485 528.411 807.787 527.023 809.561C525.635 811.336 523.672 812.442 521.554 812.643L495.753 814.97C495.53 814.989 495.306 815 495.085 815Z" fill="#4C2E5E"/>
<path d="M396.855 439.791L315.146 493L342.862 358.258C346.596 342.474 353.598 327.867 363.314 315.59C373.03 303.313 385.194 293.704 398.844 287.52L400 287L396.855 439.791Z" fill="#2F2E41"/>
<path d="M416.5 309.5C405.411 298.932 402.931 221.534 409.726 207C416.521 192.466 425 210 444.5 196C457.585 200.306 458.594 314.9 457 299.5C544 207 461.5 221 472.5 188.5C468 187.5 435.468 138 409.726 159.019C389.468 153.5 385.965 168.118 379 175.5C365.082 190.512 356.912 255.5 361 269C396 260.5 398.542 311.582 416.5 309.5Z" fill="#2F2E41"/>
<path d="M376.48 669.442C375.932 669.675 375.361 669.837 374.779 669.926L303.31 680.914C301.581 681.187 299.82 680.803 298.315 679.827C296.81 678.85 295.652 677.338 295.032 675.54L233.514 499.221C233.116 498.079 232.946 496.857 233.015 495.636C233.085 494.415 233.392 493.226 233.917 492.148C234.441 491.07 235.171 490.13 236.055 489.39C236.94 488.651 237.958 488.13 239.042 487.864L306.251 471.344C306.769 471.215 307.271 471.013 307.742 470.743L373.112 433.097C373.617 432.805 374.15 432.577 374.701 432.415L446.641 411.291C448.484 410.746 450.444 410.972 452.143 411.927C453.843 412.882 455.16 414.497 455.841 416.459L509.481 570.199C509.952 571.538 510.106 572.987 509.928 574.41C509.751 575.833 509.248 577.183 508.466 578.333L489.915 605.772C489.043 607.064 487.855 608.055 486.491 608.632L445.95 625.794C445.659 625.917 445.378 626.064 445.107 626.235L377.552 668.882C377.208 669.099 376.85 669.286 376.48 669.442Z" fill="white"/>
<path d="M409.799 434.636L400.737 437.321L376.721 444.436L376.679 444.447L343.8 463.545L331.598 470.634L331.592 470.636L313.267 481.279L312.764 481.405L293.727 486.121L284.526 488.406L247 497.709L305.912 668L344.582 662.005L354.064 660.532L374.273 657.395L374.508 657.361L439.449 616.014L478.96 599.146L497 572.235L445.719 424L409.799 434.636Z" fill="#E6E6E6"/>
<path d="M454.382 449.023L257.896 532.102L261.261 541.736L457.746 458.656L454.382 449.023Z" fill="white"/>
<path d="M465.597 481.133L269.112 564.213L272.477 573.846L468.962 490.766L465.597 481.133Z" fill="white"/>
<path d="M488.254 545.996L291.769 629.076L295.134 638.709L491.619 555.629L488.254 545.996Z" fill="white"/>
<path d="M410.123 435L469 604.278L460.237 608L401 437.689L410.123 435Z" fill="white"/>
<path d="M343 464L330.907 501.062L326.714 513.918L316.933 543.915L314.837 550.327L312.74 556.77L309.978 565.23L290.154 626L285 611.227L301.164 561.672L304.821 550.452L305.357 548.814L309.682 535.549L315.138 518.819L319.331 505.961L330.708 471.079L330.713 471.078L343 464Z" fill="white"/>
<path opacity="0.1" d="M441 616.007L439.574 616.612L374.178 657.967L373.941 658L312 481.975L312.507 481.85L330.961 471.205L330.966 471.203L343.254 464.113L376.364 445.011L376.407 445L441 616.007Z" fill="black"/>
<path d="M376.782 670.373C376.174 670.63 375.541 670.81 374.897 670.909L303.338 681.905C301.422 682.207 299.47 681.782 297.803 680.7C296.136 679.618 294.853 677.944 294.165 675.953L232.57 499.514C232.128 498.25 231.94 496.896 232.017 495.545C232.094 494.193 232.434 492.876 233.016 491.682C233.597 490.489 234.405 489.447 235.385 488.629C236.365 487.81 237.494 487.233 238.694 486.938L305.988 470.407C306.437 470.295 306.871 470.12 307.279 469.886L372.732 432.215C373.291 431.892 373.882 431.639 374.492 431.461L446.524 410.322C448.565 409.718 450.737 409.969 452.62 411.027C454.503 412.084 455.963 413.872 456.718 416.045L510.425 569.889C510.947 571.372 511.117 572.977 510.921 574.553C510.724 576.129 510.166 577.624 509.3 578.897L490.726 606.354C489.76 607.784 488.444 608.883 486.932 609.522L446.34 626.695C446.088 626.801 445.844 626.929 445.61 627.077L377.97 669.752C377.589 669.993 377.192 670.2 376.782 670.373ZM238.67 490.729C237.368 491.28 236.319 492.378 235.752 493.782C235.185 495.185 235.148 496.778 235.648 498.212L297.243 674.651C297.666 675.875 298.455 676.904 299.48 677.569C300.504 678.234 301.704 678.495 302.882 678.309L374.441 667.313C375.106 667.21 375.747 666.969 376.33 666.602L443.971 623.926C444.351 623.686 444.747 623.479 445.156 623.306L485.749 606.133C486.678 605.74 487.487 605.065 488.081 604.186L506.655 576.729C507.188 575.946 507.53 575.027 507.651 574.058C507.772 573.09 507.667 572.103 507.346 571.192L453.639 417.348C453.175 416.012 452.278 414.913 451.121 414.263C449.963 413.613 448.628 413.458 447.374 413.829L375.342 434.969C374.968 435.08 374.605 435.235 374.261 435.432L308.808 473.105C308.143 473.485 307.437 473.769 306.707 473.951L239.413 490.482C239.16 490.544 238.912 490.626 238.67 490.729Z" fill="#E6E6E6"/>
<path d="M292.263 486L353 660.527L343.456 662L283 488.286L292.263 486Z" fill="white"/>
<path d="M311 557C313.761 557 316 554.761 316 552C316 549.239 313.761 547 311 547C308.239 547 306 549.239 306 552C306 554.761 308.239 557 311 557Z" fill="#3F3D56"/>
<path d="M465.5 562C467.985 562 470 559.761 470 557C470 554.239 467.985 552 465.5 552C463.015 552 461 554.239 461 557C461 559.761 463.015 562 465.5 562Z" fill="#84CC16"/>
<path d="M467.107 469.966C471.996 484.046 466.112 530.709 464.044 545.687C463.978 546.162 463.801 546.61 463.528 546.984C463.256 547.358 462.9 547.646 462.494 547.819C462.089 547.991 461.65 548.042 461.221 547.965C460.793 547.889 460.39 547.689 460.054 547.384C449.455 537.794 416.855 507.503 411.966 493.422C410.574 489.415 409.91 485.143 410.01 480.851C410.11 476.559 410.973 472.331 412.549 468.408C414.125 464.485 416.384 460.944 419.197 457.987C422.009 455.031 425.32 452.716 428.941 451.176C432.561 449.636 436.421 448.9 440.298 449.011C444.176 449.122 447.995 450.077 451.539 451.821C455.083 453.566 458.282 456.067 460.953 459.18C463.624 462.293 465.715 465.958 467.107 469.966Z" fill="#84CC16"/>
<path d="M439.5 500C448.06 500 455 491.941 455 482C455 472.059 448.06 464 439.5 464C430.94 464 424 472.059 424 482C424 491.941 430.94 500 439.5 500Z" fill="white"/>
<path d="M418.637 442.954C419.297 440.296 420.481 437.829 422.104 435.726C423.727 433.624 425.751 431.938 428.032 430.787C430.314 429.636 432.798 429.047 435.309 429.063C437.82 429.079 440.298 429.698 442.567 430.878L471.687 402L492 417.134L450.355 457.282C448.295 461.333 444.953 464.414 440.961 465.942C436.969 467.47 432.605 467.339 428.695 465.573C424.785 463.807 421.602 460.529 419.748 456.36C417.895 452.191 417.499 447.421 418.637 442.954Z" fill="#FFB8B8"/>
<path d="M464.957 453L442 419.046L494.336 382.541L456.825 324.205C453.76 319.439 452.416 313.608 453.051 307.829C453.686 302.05 456.255 296.729 460.265 292.886C464.276 289.043 469.446 286.947 474.786 287.001C480.127 287.055 485.261 289.253 489.206 293.176L536.174 339.879C540.648 344.328 544.119 349.842 546.317 355.992C548.515 362.142 549.381 368.762 548.847 375.337C548.312 381.912 546.393 388.263 543.237 393.896C540.082 399.53 535.775 404.293 530.653 407.816L464.957 453Z" fill="#2F2E41"/>
<path d="M286.792 542.509C288.824 540.92 290.522 538.847 291.767 536.438C293.012 534.029 293.773 531.341 293.997 528.564C294.221 525.787 293.902 522.989 293.063 520.366C292.224 517.742 290.885 515.359 289.141 513.382L304 473.145L284.516 457L264.24 514.155C261.489 517.679 259.981 522.219 260 526.914C260.02 531.608 261.566 536.132 264.346 539.627C267.126 543.122 270.946 545.346 275.083 545.877C279.22 546.408 283.386 545.21 286.792 542.509Z" fill="#FFB8B8"/>
<path d="M297.602 501L262 491.887L288.531 407.799C293.103 393.29 299.848 379.722 308.487 367.656L351.77 307.16C355.728 301.627 361.521 298.043 367.879 297.194C374.236 296.346 389.764 291.669 394.813 296C399.861 300.331 394.018 313.318 394.813 320.303C395.607 327.287 393.851 334.334 389.928 339.898L341.9 408.03L297.602 501Z" fill="#2F2E41"/>
<path d="M835.905 474.81C851.316 474.81 863.81 462.316 863.81 446.905C863.81 431.493 851.316 419 835.905 419C820.493 419 808 431.493 808 446.905C808 462.316 820.493 474.81 835.905 474.81Z" fill="#2F2E41"/>
</svg>
