<svg width="142" height="142" viewBox="0 0 142 142" fill="none" xmlns="http://www.w3.org/2000/svg">
<path d="M0.152954 71.0994C0.152954 110.257 31.8962 142 71.0535 142C110.211 142 141.954 110.257 141.954 71.0994C141.954 31.9421 110.211 0.198853 71.0535 0.198853C31.8962 0.198853 0.152954 31.9421 0.152954 71.0994Z" fill="white"/>
<path d="M60.7683 97.1893C44.2744 102.137 44.2744 88.9423 37.6768 87.2929M60.7683 97.1893V94.3193M60.7683 97.1893V107.086M60.7683 94.3193C60.6588 92.7625 60.8784 91.2001 61.4126 89.7337C61.9469 88.2674 62.7839 86.9299 63.8692 85.8084C53.511 84.5219 42.625 80.5964 42.625 62.7169C42.6003 58.077 44.3738 53.608 47.5732 50.2475C46.0694 46.218 46.1757 41.7641 47.8701 37.811C47.8701 37.811 51.7626 36.6565 60.7683 42.6933C68.3291 40.6441 76.2991 40.6441 83.8599 42.6933C92.8656 36.6565 96.7581 37.811 96.7581 37.811C98.4525 41.7641 98.5588 46.218 97.055 50.2475C100.231 53.5832 102.002 58.0123 102.003 62.6179C102.003 80.6293 91.1172 84.5549 80.759 85.7095C81.8573 86.8424 82.7018 88.196 83.2364 89.6805C83.7711 91.165 83.9836 92.7463 83.8599 94.3193V107.086H60.7683M60.7683 94.3193V107.086" stroke="#EFEFEF" stroke-width="16.1865" stroke-linecap="round" stroke-linejoin="round"/>
<path d="M83.8599 107.086V94.3193C83.9836 92.7463 83.7711 91.165 83.2364 89.6805C82.7018 88.196 81.8573 86.8424 80.759 85.7095C91.1172 84.5549 102.003 80.6293 102.003 62.6179C102.002 58.0123 100.231 53.5832 97.055 50.2475C98.5588 46.218 98.4525 41.7641 96.7581 37.811C96.7581 37.811 92.8656 36.6565 83.8599 42.6933C76.2991 40.6441 68.3291 40.6441 60.7683 42.6933C51.7626 36.6565 47.8701 37.811 47.8701 37.811C46.1757 41.7641 46.0694 46.218 47.5732 50.2475C44.3738 53.608 42.6003 58.077 42.625 62.7169C42.625 80.5964 53.511 84.5219 63.8692 85.8084C62.7839 86.9299 61.9469 88.2674 61.4126 89.7337C60.8784 91.2001 60.6588 92.7625 60.7683 94.3193V97.1893V107.086H83.8599Z" fill="#4C2E5E"/>
<path d="M60.7683 97.1893C44.2744 102.137 44.2744 88.9423 37.6768 87.2929M60.7683 97.1893V94.3193M60.7683 97.1893V107.086M60.7683 94.3193C60.6588 92.7625 60.8784 91.2001 61.4126 89.7337C61.9469 88.2674 62.7839 86.9299 63.8692 85.8084C53.511 84.5219 42.625 80.5964 42.625 62.7169C42.6003 58.077 44.3738 53.608 47.5732 50.2475C46.0694 46.218 46.1757 41.7641 47.8701 37.811C47.8701 37.811 51.7626 36.6565 60.7683 42.6933C68.3291 40.6441 76.2991 40.6441 83.8599 42.6933C92.8656 36.6565 96.7581 37.811 96.7581 37.811C98.4525 41.7641 98.5588 46.218 97.055 50.2475C100.231 53.5832 102.002 58.0123 102.003 62.6179C102.003 80.6293 91.1172 84.5549 80.759 85.7095C81.8573 86.8424 82.7018 88.196 83.2364 89.6805C83.7711 91.165 83.9836 92.7463 83.8599 94.3193V107.086H60.7683M60.7683 94.3193V107.086" stroke="#4C2E5E" stroke-width="6.93706" stroke-linecap="round" stroke-linejoin="round"/>
</svg>
