<svg width="53" height="53" viewBox="0 0 53 53" fill="none" xmlns="http://www.w3.org/2000/svg">
<path d="M0 26.4528C0 41.0623 11.8433 52.9056 26.4528 52.9056C41.0623 52.9056 52.9056 41.0623 52.9056 26.4528C52.9056 11.8433 41.0623 0 26.4528 0C11.8433 0 0 11.8433 0 26.4528Z" fill="white"/>
<path d="M20.3975 11.6326H32.5088C37.3491 11.6328 41.2724 15.5569 41.2725 20.3972V32.5085C41.2723 37.3488 37.349 41.272 32.5088 41.2722H20.3975C15.5571 41.2722 11.633 37.3489 11.6328 32.5085V20.3972C11.6329 15.5568 15.557 11.6326 20.3975 11.6326Z" fill="#4C2E5E" stroke="#EDEDED" stroke-width="2.23096"/>
<path d="M34.5801 17.5291C35.0201 17.5291 35.377 17.8859 35.377 18.3259C35.3769 18.7659 35.0201 19.1228 34.5801 19.1228C34.14 19.1228 33.7832 18.766 33.7832 18.3259C33.7832 17.8859 34.14 17.5291 34.5801 17.5291Z" fill="white" stroke="white" stroke-width="1.91225"/>
<circle cx="26.2937" cy="26.9312" r="6.53352" stroke="white" stroke-width="2.54967"/>
</svg>
