<svg width="142" height="142" viewBox="0 0 142 142" fill="none" xmlns="http://www.w3.org/2000/svg">
  <!-- Fundo preto arredondado -->
  <rect width="142" height="142" rx="71" fill="white"/>
  
  <rect x="32.2083" y="29.5243" width="16.1042" height="16.1042" rx="8.05208" fill="#4C2E5E"/>
  <rect x="32.2083" y="59.0486" width="16.1042" height="48.3125" fill="#4C2E5E"/>
  <rect x="64.4166" y="67.1006" width="18.7882" height="18.7882" rx="9.39409" fill="#4C2E5E"/>
  <rect x="96.6249" y="64.4166" width="18.7882" height="18.7882" rx="9.39409" fill="#4C2E5E"/>
  <rect x="93.9409" y="59.0486" width="16.1042" height="16.1042" rx="8.05208" fill="#4C2E5E"/>
  <rect x="67.1007" y="61.7325" width="16.1042" height="16.1042" rx="8.05208" fill="#4C2E5E"/>
  <rect x="72.4687" y="56.3645" width="16.1042" height="18.7882" rx="8.05208" fill="#4C2E5E"/>
  <rect x="88.5729" y="56.3645" width="16.1042" height="16.1042" rx="8.05208" fill="#4C2E5E"/>
  <rect x="80.5208" y="53.6804" width="18.7882" height="16.1042" rx="8.05208" fill="#4C2E5E"/>
  <rect x="64.4166" y="75.1527" width="18.7882" height="32.2083" fill="#4C2E5E"/>
  <rect x="99.309" y="75.1527" width="16.1042" height="32.2083" fill="#4C2E5E"/>
  
  <path d="M90.3626 54.5749C96.9472 54.5749 103.262 57.1906 107.918 61.8467C112.574 66.5027 115.19 72.8176 115.19 79.4022V108.367H98.6384V79.4022C98.6384 77.2073 97.7665 75.1023 96.2145 73.5503C94.6625 71.9983 92.5575 71.1264 90.3626 71.1264C88.1678 71.1264 86.0628 71.9983 84.5108 73.5503C82.9588 75.1023 82.0869 77.2073 82.0869 79.4022V108.367H65.5354V79.4022C65.5354 72.8176 68.1511 66.5027 72.8071 61.8467C77.4632 57.1906 83.7781 54.5749 90.3626 54.5749Z" stroke="#4C2E5E" stroke-width="2.68403" stroke-linecap="round" stroke-linejoin="round"/>
  <path d="M48.9839 58.7128H32.4324V108.367H48.9839V58.7128Z" stroke="#4C2E5E" stroke-width="2.68403" stroke-linecap="round" stroke-linejoin="round"/>
  <path d="M40.7082 46.2992C45.2787 46.2992 48.9839 42.594 48.9839 38.0234C48.9839 33.4529 45.2787 29.7477 40.7082 29.7477C36.1376 29.7477 32.4324 33.4529 32.4324 38.0234C32.4324 42.594 36.1376 46.2992 40.7082 46.2992Z" stroke="#4C2E5E" stroke-width="2.68403" stroke-linecap="round" stroke-linejoin="round"/>
</svg>