<svg width="53" height="53" viewBox="0 0 53 53" fill="none" xmlns="http://www.w3.org/2000/svg">
<path d="M0 26.4528C0 41.0623 11.8433 52.9056 26.4528 52.9056C41.0623 52.9056 52.9056 41.0623 52.9056 26.4528C52.9056 11.8433 41.0623 0 26.4528 0C11.8433 0 0 11.8433 0 26.4528Z" fill="white"/>
<path d="M40.9541 21.8311C40.9541 22.0139 40.8753 22.1886 40.7383 22.3096C40.6012 22.4305 40.4187 22.4865 40.2373 22.4639L36.7314 22.0254C35.7502 21.9027 34.7904 21.647 33.8799 21.2646L33.4922 21.0928L33.4756 21.085L33.6045 31.832L33.6035 32.2539C33.5894 33.2373 33.485 34.2176 33.292 35.1826C33.29 35.1925 33.2886 35.2031 33.2861 35.2129L32.9668 36.4873L32.9434 36.5615L32.5449 37.5977L32.4971 37.6963C32.0546 38.4337 31.5261 39.1158 30.9229 39.7275L30.6602 39.9854L30.1572 40.4609L30.1299 40.4854L29.7363 40.8164C29.0427 41.4005 28.2736 41.8876 27.4502 42.2646L27.0938 42.4199L25.7393 42.9775C25.695 42.9957 25.6487 43.0087 25.6016 43.0166L24.167 43.2559L24.0938 43.2637C23.1234 43.3122 22.151 43.2596 21.1924 43.1064L20.7822 43.0342L20.6758 43.0146L20.6348 43.0049L20.3662 42.9346C19.402 42.683 18.4785 42.2974 17.623 41.7891L17.2598 41.5635C16.0562 40.7811 15.0246 39.7632 14.2266 38.5723L14.0703 38.332L14.0469 38.2959C13.6005 37.5891 13.2395 36.8323 12.9697 36.042L12.8594 35.7012L12.7734 35.418C12.3263 33.9486 12.2429 32.3925 12.5303 30.8838L12.627 30.375L12.7139 29.9893C12.8145 29.6067 12.9546 29.2353 13.1318 28.8809L13.5439 28.0566L13.7383 27.6875C14.208 26.8356 14.7955 26.0531 15.4844 25.3643L15.5156 25.3359L15.9971 24.9141L16.21 24.7324C16.7133 24.3158 17.2561 23.9488 17.8301 23.6357L18.2754 23.4062C18.7266 23.1881 19.194 23.0041 19.6729 22.8545L21.3223 22.3389L21.4492 22.3125C21.5777 22.2997 21.7087 22.3268 21.8232 22.3906C21.9757 22.4758 22.0865 22.6199 22.1299 22.7891L23.7236 29.0039C23.8078 29.3332 23.6187 29.6703 23.2939 29.7705L22.1523 30.1221C21.7161 30.2563 21.3184 30.492 20.9922 30.8086L20.8574 30.9492L20.7432 31.0762C20.4438 31.4088 20.2458 31.8184 20.1699 32.2568L20.1445 32.4463C20.109 32.8378 20.1713 33.2324 20.3262 33.5938L20.3779 33.7129L20.4404 33.8496C20.7705 34.5211 21.3502 35.04 22.0586 35.293L22.083 35.3018L22.2383 35.3525C22.6033 35.4605 22.9864 35.4969 23.3662 35.459L23.5928 35.4365L23.8135 35.4043C24.0323 35.3621 24.2444 35.2894 24.4443 35.1895L24.498 35.1631L24.6445 35.082C24.7877 34.9954 24.9204 34.8921 25.0391 34.7734L25.1787 34.6191C25.4405 34.299 25.601 33.9078 25.6396 33.4961L25.6484 33.2881L25.4961 9.88379C25.4951 9.71411 25.562 9.55104 25.6816 9.43066C25.8013 9.31023 25.964 9.24219 26.1338 9.24219H32.5078L32.5928 9.24805C32.788 9.27422 32.9622 9.38974 33.0615 9.56348L34.3164 11.7617L34.8828 12.5332L35.0127 12.7031C35.6799 13.5408 36.5841 14.1611 37.6094 14.4814L37.9082 14.5654C38.2095 14.6407 38.517 14.6898 38.8271 14.7119L40.3613 14.8213L40.4834 14.8418C40.756 14.9156 40.954 15.1647 40.9541 15.457V21.8311Z" fill="#4C2E5E" stroke="#EFEFEF" stroke-width="1.27483" stroke-linejoin="round"/>
</svg>
